<mxfile host="app.diagrams.net" agent="Mozilla/5.0 (Windows NT 10.0; Win64; x64) AppleWebKit/537.36 (KHTML, like Gecko) Chrome/136.0.0.0 Safari/537.36" version="27.0.2">
  <diagram name="Página-1" id="5WowF1tZtqZ2zWdQ8NlJ">
    <mxGraphModel dx="13130" dy="7925" grid="1" gridSize="10" guides="1" tooltips="1" connect="1" arrows="1" fold="1" page="1" pageScale="1" pageWidth="2000" pageHeight="2000" math="0" shadow="0">
      <root>
        <mxCell id="0" />
        <mxCell id="1" parent="0" />
        <mxCell id="Lxw3tEKo1LNul-f_pS27-1" value="&lt;font style=&quot;font-size: 28px;&quot;&gt;Flooky pets&lt;/font&gt;" style="swimlane;childLayout=stackLayout;resizeParent=1;resizeParentMax=0;horizontal=1;startSize=150;horizontalStack=0;html=1;" parent="1" vertex="1">
          <mxGeometry x="-6000" y="-4000" width="5270" height="1470" as="geometry" />
        </mxCell>
        <mxCell id="Lxw3tEKo1LNul-f_pS27-2" value="&lt;font style=&quot;font-size: 28px;&quot;&gt;Navegacion&lt;/font&gt;" style="swimlane;startSize=140;horizontal=0;html=1;" parent="Lxw3tEKo1LNul-f_pS27-1" vertex="1">
          <mxGeometry y="150" width="5270" height="300" as="geometry" />
        </mxCell>
        <mxCell id="Lxw3tEKo1LNul-f_pS27-91" style="edgeStyle=orthogonalEdgeStyle;rounded=0;orthogonalLoop=1;jettySize=auto;html=1;entryX=0;entryY=0.5;entryDx=0;entryDy=0;" parent="Lxw3tEKo1LNul-f_pS27-2" source="Lxw3tEKo1LNul-f_pS27-32" target="Lxw3tEKo1LNul-f_pS27-8" edge="1">
          <mxGeometry relative="1" as="geometry" />
        </mxCell>
        <mxCell id="Lxw3tEKo1LNul-f_pS27-32" value="&quot;Uso de pagina web Flooky Pets&quot;" style="shape=document;whiteSpace=wrap;html=1;boundedLbl=1;" parent="Lxw3tEKo1LNul-f_pS27-2" vertex="1">
          <mxGeometry x="270" y="82.5" width="140" height="55" as="geometry" />
        </mxCell>
        <mxCell id="Lxw3tEKo1LNul-f_pS27-6" value="INICIO" style="ellipse;whiteSpace=wrap;html=1;aspect=fixed;" parent="Lxw3tEKo1LNul-f_pS27-2" vertex="1">
          <mxGeometry x="150" y="72.5" width="60" height="60" as="geometry" />
        </mxCell>
        <mxCell id="Lxw3tEKo1LNul-f_pS27-95" style="edgeStyle=orthogonalEdgeStyle;rounded=0;orthogonalLoop=1;jettySize=auto;html=1;" parent="Lxw3tEKo1LNul-f_pS27-2" source="Lxw3tEKo1LNul-f_pS27-8" target="Lxw3tEKo1LNul-f_pS27-10" edge="1">
          <mxGeometry relative="1" as="geometry" />
        </mxCell>
        <mxCell id="Lxw3tEKo1LNul-f_pS27-8" value="Carga inicial de la pagina" style="rounded=1;whiteSpace=wrap;html=1;" parent="Lxw3tEKo1LNul-f_pS27-2" vertex="1">
          <mxGeometry x="450" y="80" width="120" height="60" as="geometry" />
        </mxCell>
        <mxCell id="Lxw3tEKo1LNul-f_pS27-96" style="edgeStyle=orthogonalEdgeStyle;rounded=0;orthogonalLoop=1;jettySize=auto;html=1;entryX=0;entryY=0.5;entryDx=0;entryDy=0;" parent="Lxw3tEKo1LNul-f_pS27-2" source="Lxw3tEKo1LNul-f_pS27-10" target="Lxw3tEKo1LNul-f_pS27-13" edge="1">
          <mxGeometry relative="1" as="geometry" />
        </mxCell>
        <mxCell id="Lxw3tEKo1LNul-f_pS27-10" value="Verificar estado del servidor" style="rounded=1;whiteSpace=wrap;html=1;" parent="Lxw3tEKo1LNul-f_pS27-2" vertex="1">
          <mxGeometry x="610" y="80" width="120" height="60" as="geometry" />
        </mxCell>
        <mxCell id="Lxw3tEKo1LNul-f_pS27-94" style="edgeStyle=orthogonalEdgeStyle;rounded=0;orthogonalLoop=1;jettySize=auto;html=1;entryX=0.01;entryY=0.356;entryDx=0;entryDy=0;entryPerimeter=0;" parent="Lxw3tEKo1LNul-f_pS27-2" source="Lxw3tEKo1LNul-f_pS27-6" target="Lxw3tEKo1LNul-f_pS27-32" edge="1">
          <mxGeometry relative="1" as="geometry" />
        </mxCell>
        <mxCell id="Lxw3tEKo1LNul-f_pS27-97" style="edgeStyle=orthogonalEdgeStyle;rounded=0;orthogonalLoop=1;jettySize=auto;html=1;entryX=0;entryY=0.5;entryDx=0;entryDy=0;" parent="Lxw3tEKo1LNul-f_pS27-2" source="Lxw3tEKo1LNul-f_pS27-13" target="Lxw3tEKo1LNul-f_pS27-19" edge="1">
          <mxGeometry relative="1" as="geometry" />
        </mxCell>
        <mxCell id="Lxw3tEKo1LNul-f_pS27-100" style="edgeStyle=orthogonalEdgeStyle;rounded=0;orthogonalLoop=1;jettySize=auto;html=1;entryX=0.5;entryY=0;entryDx=0;entryDy=0;" parent="Lxw3tEKo1LNul-f_pS27-2" source="Lxw3tEKo1LNul-f_pS27-13" target="Lxw3tEKo1LNul-f_pS27-15" edge="1">
          <mxGeometry relative="1" as="geometry" />
        </mxCell>
        <mxCell id="Lxw3tEKo1LNul-f_pS27-13" value="Servidor disponible?" style="rhombus;whiteSpace=wrap;html=1;" parent="Lxw3tEKo1LNul-f_pS27-2" vertex="1">
          <mxGeometry x="775" y="70" width="90" height="80" as="geometry" />
        </mxCell>
        <mxCell id="Lxw3tEKo1LNul-f_pS27-102" style="edgeStyle=orthogonalEdgeStyle;rounded=0;orthogonalLoop=1;jettySize=auto;html=1;entryX=0;entryY=0.5;entryDx=0;entryDy=0;" parent="Lxw3tEKo1LNul-f_pS27-2" source="Lxw3tEKo1LNul-f_pS27-15" target="Lxw3tEKo1LNul-f_pS27-17" edge="1">
          <mxGeometry relative="1" as="geometry" />
        </mxCell>
        <mxCell id="Lxw3tEKo1LNul-f_pS27-15" value="Mostrar pagina de mantenimiento" style="rounded=1;whiteSpace=wrap;html=1;" parent="Lxw3tEKo1LNul-f_pS27-2" vertex="1">
          <mxGeometry x="760" y="202.5" width="120" height="60" as="geometry" />
        </mxCell>
        <mxCell id="Lxw3tEKo1LNul-f_pS27-103" style="edgeStyle=orthogonalEdgeStyle;rounded=0;orthogonalLoop=1;jettySize=auto;html=1;entryX=0;entryY=0.5;entryDx=0;entryDy=0;" parent="Lxw3tEKo1LNul-f_pS27-2" source="Lxw3tEKo1LNul-f_pS27-17" target="Lxw3tEKo1LNul-f_pS27-33" edge="1">
          <mxGeometry relative="1" as="geometry" />
        </mxCell>
        <mxCell id="Lxw3tEKo1LNul-f_pS27-17" value="Intentar reconexión automatica" style="rounded=1;whiteSpace=wrap;html=1;" parent="Lxw3tEKo1LNul-f_pS27-2" vertex="1">
          <mxGeometry x="940" y="202.5" width="120" height="60" as="geometry" />
        </mxCell>
        <mxCell id="Lxw3tEKo1LNul-f_pS27-99" style="edgeStyle=orthogonalEdgeStyle;rounded=0;orthogonalLoop=1;jettySize=auto;html=1;exitX=1;exitY=0.5;exitDx=0;exitDy=0;entryX=0;entryY=0.5;entryDx=0;entryDy=0;" parent="Lxw3tEKo1LNul-f_pS27-2" source="Lxw3tEKo1LNul-f_pS27-19" target="Lxw3tEKo1LNul-f_pS27-21" edge="1">
          <mxGeometry relative="1" as="geometry" />
        </mxCell>
        <mxCell id="Lxw3tEKo1LNul-f_pS27-19" value="Cargar interfaz principal" style="rounded=1;whiteSpace=wrap;html=1;" parent="Lxw3tEKo1LNul-f_pS27-2" vertex="1">
          <mxGeometry x="970" y="80" width="120" height="60" as="geometry" />
        </mxCell>
        <mxCell id="Lxw3tEKo1LNul-f_pS27-21" value="Navegar pagina web" style="rounded=1;whiteSpace=wrap;html=1;" parent="Lxw3tEKo1LNul-f_pS27-2" vertex="1">
          <mxGeometry x="1150" y="80" width="120" height="60" as="geometry" />
        </mxCell>
        <mxCell id="Lxw3tEKo1LNul-f_pS27-25" value="Si" style="text;html=1;align=center;verticalAlign=middle;resizable=0;points=[];autosize=1;strokeColor=none;fillColor=none;" parent="Lxw3tEKo1LNul-f_pS27-2" vertex="1">
          <mxGeometry x="860" y="72.5" width="30" height="30" as="geometry" />
        </mxCell>
        <mxCell id="Lxw3tEKo1LNul-f_pS27-26" value="No" style="text;html=1;align=center;verticalAlign=middle;resizable=0;points=[];autosize=1;strokeColor=none;fillColor=none;" parent="Lxw3tEKo1LNul-f_pS27-2" vertex="1">
          <mxGeometry x="775" y="160.5" width="40" height="30" as="geometry" />
        </mxCell>
        <mxCell id="Lxw3tEKo1LNul-f_pS27-33" value="1" style="ellipse;whiteSpace=wrap;html=1;aspect=fixed;" parent="Lxw3tEKo1LNul-f_pS27-2" vertex="1">
          <mxGeometry x="1130" y="212.5" width="40" height="40" as="geometry" />
        </mxCell>
        <mxCell id="Lxw3tEKo1LNul-f_pS27-35" value="" style="endArrow=none;html=1;rounded=0;" parent="Lxw3tEKo1LNul-f_pS27-2" source="Lxw3tEKo1LNul-f_pS27-37" edge="1">
          <mxGeometry width="50" height="50" relative="1" as="geometry">
            <mxPoint x="880" y="98" as="sourcePoint" />
            <mxPoint x="910" y="30" as="targetPoint" />
          </mxGeometry>
        </mxCell>
        <mxCell id="Lxw3tEKo1LNul-f_pS27-36" value="" style="endArrow=none;html=1;rounded=0;" parent="Lxw3tEKo1LNul-f_pS27-2" edge="1">
          <mxGeometry width="50" height="50" relative="1" as="geometry">
            <mxPoint x="910" y="112.5" as="sourcePoint" />
            <mxPoint x="910" y="97.5" as="targetPoint" />
          </mxGeometry>
        </mxCell>
        <mxCell id="Lxw3tEKo1LNul-f_pS27-37" value="1" style="ellipse;whiteSpace=wrap;html=1;aspect=fixed;" parent="Lxw3tEKo1LNul-f_pS27-2" vertex="1">
          <mxGeometry x="890" y="60" width="40" height="40" as="geometry" />
        </mxCell>
        <mxCell id="Lxw3tEKo1LNul-f_pS27-3" value="&lt;font style=&quot;font-size: 28px;&quot;&gt;Inicio Sesion&lt;/font&gt;" style="swimlane;startSize=140;horizontal=0;html=1;" parent="Lxw3tEKo1LNul-f_pS27-1" vertex="1">
          <mxGeometry y="450" width="5270" height="500" as="geometry" />
        </mxCell>
        <mxCell id="Lxw3tEKo1LNul-f_pS27-22" style="edgeStyle=orthogonalEdgeStyle;rounded=0;orthogonalLoop=1;jettySize=auto;html=1;exitX=1;exitY=0.5;exitDx=0;exitDy=0;entryX=0;entryY=0.5;entryDx=0;entryDy=0;" parent="Lxw3tEKo1LNul-f_pS27-3" source="Lxw3tEKo1LNul-f_pS27-24" target="Lxw3tEKo1LNul-f_pS27-30" edge="1">
          <mxGeometry relative="1" as="geometry" />
        </mxCell>
        <mxCell id="Lxw3tEKo1LNul-f_pS27-23" style="edgeStyle=orthogonalEdgeStyle;rounded=0;orthogonalLoop=1;jettySize=auto;html=1;exitX=0.5;exitY=1;exitDx=0;exitDy=0;entryX=0.5;entryY=0;entryDx=0;entryDy=0;" parent="Lxw3tEKo1LNul-f_pS27-3" source="Lxw3tEKo1LNul-f_pS27-24" target="Lxw3tEKo1LNul-f_pS27-28" edge="1">
          <mxGeometry relative="1" as="geometry" />
        </mxCell>
        <mxCell id="Lxw3tEKo1LNul-f_pS27-24" value="Interesado en Flooky Pets?" style="rhombus;whiteSpace=wrap;html=1;" parent="Lxw3tEKo1LNul-f_pS27-3" vertex="1">
          <mxGeometry x="1290" y="50" width="100" height="100" as="geometry" />
        </mxCell>
        <mxCell id="Lxw3tEKo1LNul-f_pS27-27" style="edgeStyle=orthogonalEdgeStyle;rounded=0;orthogonalLoop=1;jettySize=auto;html=1;exitX=0.5;exitY=1;exitDx=0;exitDy=0;entryX=0.5;entryY=0;entryDx=0;entryDy=0;" parent="Lxw3tEKo1LNul-f_pS27-3" source="Lxw3tEKo1LNul-f_pS27-28" target="Lxw3tEKo1LNul-f_pS27-34" edge="1">
          <mxGeometry relative="1" as="geometry" />
        </mxCell>
        <mxCell id="Lxw3tEKo1LNul-f_pS27-28" value="Salir de la pagina web" style="rounded=1;whiteSpace=wrap;html=1;" parent="Lxw3tEKo1LNul-f_pS27-3" vertex="1">
          <mxGeometry x="1280" y="320" width="120" height="60" as="geometry" />
        </mxCell>
        <mxCell id="Lxw3tEKo1LNul-f_pS27-117" style="edgeStyle=orthogonalEdgeStyle;rounded=0;orthogonalLoop=1;jettySize=auto;html=1;entryX=0;entryY=0.5;entryDx=0;entryDy=0;" parent="Lxw3tEKo1LNul-f_pS27-3" source="Lxw3tEKo1LNul-f_pS27-30" target="Lxw3tEKo1LNul-f_pS27-44" edge="1">
          <mxGeometry relative="1" as="geometry" />
        </mxCell>
        <mxCell id="Lxw3tEKo1LNul-f_pS27-30" value="Ingresa a Iniciar Sesión" style="rounded=1;whiteSpace=wrap;html=1;" parent="Lxw3tEKo1LNul-f_pS27-3" vertex="1">
          <mxGeometry x="1450" y="70" width="120" height="60" as="geometry" />
        </mxCell>
        <mxCell id="Lxw3tEKo1LNul-f_pS27-34" value="2" style="ellipse;whiteSpace=wrap;html=1;aspect=fixed;" parent="Lxw3tEKo1LNul-f_pS27-3" vertex="1">
          <mxGeometry x="1320" y="440" width="40" height="40" as="geometry" />
        </mxCell>
        <mxCell id="Lxw3tEKo1LNul-f_pS27-38" value="No" style="text;html=1;align=center;verticalAlign=middle;resizable=0;points=[];autosize=1;strokeColor=none;fillColor=none;" parent="Lxw3tEKo1LNul-f_pS27-3" vertex="1">
          <mxGeometry x="1290" y="268" width="40" height="30" as="geometry" />
        </mxCell>
        <mxCell id="Lxw3tEKo1LNul-f_pS27-39" value="Si" style="text;html=1;align=center;verticalAlign=middle;resizable=0;points=[];autosize=1;strokeColor=none;fillColor=none;" parent="Lxw3tEKo1LNul-f_pS27-3" vertex="1">
          <mxGeometry x="1405" y="58" width="30" height="30" as="geometry" />
        </mxCell>
        <mxCell id="Lxw3tEKo1LNul-f_pS27-40" style="edgeStyle=orthogonalEdgeStyle;rounded=0;orthogonalLoop=1;jettySize=auto;html=1;exitX=1;exitY=0.5;exitDx=0;exitDy=0;entryX=0;entryY=0.5;entryDx=0;entryDy=0;" parent="Lxw3tEKo1LNul-f_pS27-3" source="Lxw3tEKo1LNul-f_pS27-41" target="Lxw3tEKo1LNul-f_pS27-62" edge="1">
          <mxGeometry relative="1" as="geometry" />
        </mxCell>
        <mxCell id="Lxw3tEKo1LNul-f_pS27-41" value="Ingresar tus datos" style="rounded=1;whiteSpace=wrap;html=1;" parent="Lxw3tEKo1LNul-f_pS27-3" vertex="1">
          <mxGeometry x="1870" y="70" width="120" height="60" as="geometry" />
        </mxCell>
        <mxCell id="Lxw3tEKo1LNul-f_pS27-42" style="edgeStyle=orthogonalEdgeStyle;rounded=0;orthogonalLoop=1;jettySize=auto;html=1;exitX=0.5;exitY=1;exitDx=0;exitDy=0;entryX=0.5;entryY=0;entryDx=0;entryDy=0;" parent="Lxw3tEKo1LNul-f_pS27-3" source="Lxw3tEKo1LNul-f_pS27-44" target="Lxw3tEKo1LNul-f_pS27-46" edge="1">
          <mxGeometry relative="1" as="geometry" />
        </mxCell>
        <mxCell id="Lxw3tEKo1LNul-f_pS27-118" style="edgeStyle=orthogonalEdgeStyle;rounded=0;orthogonalLoop=1;jettySize=auto;html=1;" parent="Lxw3tEKo1LNul-f_pS27-3" source="Lxw3tEKo1LNul-f_pS27-44" target="Lxw3tEKo1LNul-f_pS27-41" edge="1">
          <mxGeometry relative="1" as="geometry" />
        </mxCell>
        <mxCell id="Lxw3tEKo1LNul-f_pS27-44" value="Eres usuario de Flooky Pets?" style="rhombus;whiteSpace=wrap;html=1;" parent="Lxw3tEKo1LNul-f_pS27-3" vertex="1">
          <mxGeometry x="1650" y="40" width="100" height="120" as="geometry" />
        </mxCell>
        <mxCell id="Lxw3tEKo1LNul-f_pS27-106" style="edgeStyle=orthogonalEdgeStyle;rounded=0;orthogonalLoop=1;jettySize=auto;html=1;entryX=0;entryY=0.5;entryDx=0;entryDy=0;" parent="Lxw3tEKo1LNul-f_pS27-3" source="Lxw3tEKo1LNul-f_pS27-46" target="Lxw3tEKo1LNul-f_pS27-48" edge="1">
          <mxGeometry relative="1" as="geometry" />
        </mxCell>
        <mxCell id="Lxw3tEKo1LNul-f_pS27-46" value="Registrarte como nuevo usuario" style="rounded=1;whiteSpace=wrap;html=1;" parent="Lxw3tEKo1LNul-f_pS27-3" vertex="1">
          <mxGeometry x="1640" y="228" width="120" height="60" as="geometry" />
        </mxCell>
        <mxCell id="Lxw3tEKo1LNul-f_pS27-107" style="edgeStyle=orthogonalEdgeStyle;rounded=0;orthogonalLoop=1;jettySize=auto;html=1;entryX=0;entryY=0.5;entryDx=0;entryDy=0;" parent="Lxw3tEKo1LNul-f_pS27-3" source="Lxw3tEKo1LNul-f_pS27-48" target="Lxw3tEKo1LNul-f_pS27-50" edge="1">
          <mxGeometry relative="1" as="geometry" />
        </mxCell>
        <mxCell id="Lxw3tEKo1LNul-f_pS27-48" value="Registra tus datos" style="rounded=1;whiteSpace=wrap;html=1;" parent="Lxw3tEKo1LNul-f_pS27-3" vertex="1">
          <mxGeometry x="1790" y="228" width="120" height="60" as="geometry" />
        </mxCell>
        <mxCell id="Lxw3tEKo1LNul-f_pS27-105" style="edgeStyle=orthogonalEdgeStyle;rounded=0;orthogonalLoop=1;jettySize=auto;html=1;entryX=0;entryY=0.5;entryDx=0;entryDy=0;" parent="Lxw3tEKo1LNul-f_pS27-3" source="Lxw3tEKo1LNul-f_pS27-50" target="Lxw3tEKo1LNul-f_pS27-54" edge="1">
          <mxGeometry relative="1" as="geometry" />
        </mxCell>
        <mxCell id="Lxw3tEKo1LNul-f_pS27-50" value="Escribir clave de seguridad" style="rounded=1;whiteSpace=wrap;html=1;" parent="Lxw3tEKo1LNul-f_pS27-3" vertex="1">
          <mxGeometry x="1950" y="228" width="120" height="60" as="geometry" />
        </mxCell>
        <mxCell id="Lxw3tEKo1LNul-f_pS27-61" style="edgeStyle=orthogonalEdgeStyle;rounded=0;orthogonalLoop=1;jettySize=auto;html=1;exitX=1;exitY=0.5;exitDx=0;exitDy=0;" parent="Lxw3tEKo1LNul-f_pS27-3" source="Lxw3tEKo1LNul-f_pS27-62" target="Lxw3tEKo1LNul-f_pS27-66" edge="1">
          <mxGeometry relative="1" as="geometry" />
        </mxCell>
        <mxCell id="Lxw3tEKo1LNul-f_pS27-62" value="Olvidaste tu contraseña?" style="rhombus;whiteSpace=wrap;html=1;" parent="Lxw3tEKo1LNul-f_pS27-3" vertex="1">
          <mxGeometry x="2060" y="49" width="100" height="100" as="geometry" />
        </mxCell>
        <mxCell id="Lxw3tEKo1LNul-f_pS27-63" value="Si" style="text;html=1;align=center;verticalAlign=middle;resizable=0;points=[];autosize=1;strokeColor=none;fillColor=none;" parent="Lxw3tEKo1LNul-f_pS27-3" vertex="1">
          <mxGeometry x="1750" y="65" width="30" height="30" as="geometry" />
        </mxCell>
        <mxCell id="Lxw3tEKo1LNul-f_pS27-64" value="No" style="text;html=1;align=center;verticalAlign=middle;resizable=0;points=[];autosize=1;strokeColor=none;fillColor=none;" parent="Lxw3tEKo1LNul-f_pS27-3" vertex="1">
          <mxGeometry x="1650" y="180" width="40" height="30" as="geometry" />
        </mxCell>
        <mxCell id="Lxw3tEKo1LNul-f_pS27-65" style="edgeStyle=orthogonalEdgeStyle;rounded=0;orthogonalLoop=1;jettySize=auto;html=1;entryX=0;entryY=0.5;entryDx=0;entryDy=0;" parent="Lxw3tEKo1LNul-f_pS27-3" source="Lxw3tEKo1LNul-f_pS27-66" target="Lxw3tEKo1LNul-f_pS27-68" edge="1">
          <mxGeometry relative="1" as="geometry" />
        </mxCell>
        <mxCell id="Lxw3tEKo1LNul-f_pS27-66" value="Ingresa al formulario olvidar contraseña" style="rounded=1;whiteSpace=wrap;html=1;" parent="Lxw3tEKo1LNul-f_pS27-3" vertex="1">
          <mxGeometry x="2220" y="70" width="120" height="60" as="geometry" />
        </mxCell>
        <mxCell id="Lxw3tEKo1LNul-f_pS27-67" style="edgeStyle=orthogonalEdgeStyle;rounded=0;orthogonalLoop=1;jettySize=auto;html=1;" parent="Lxw3tEKo1LNul-f_pS27-3" source="Lxw3tEKo1LNul-f_pS27-68" target="Lxw3tEKo1LNul-f_pS27-70" edge="1">
          <mxGeometry relative="1" as="geometry" />
        </mxCell>
        <mxCell id="Lxw3tEKo1LNul-f_pS27-68" value="Ingresa tu correo" style="rounded=1;whiteSpace=wrap;html=1;" parent="Lxw3tEKo1LNul-f_pS27-3" vertex="1">
          <mxGeometry x="2410" y="70" width="120" height="60" as="geometry" />
        </mxCell>
        <mxCell id="Lxw3tEKo1LNul-f_pS27-111" style="edgeStyle=orthogonalEdgeStyle;rounded=0;orthogonalLoop=1;jettySize=auto;html=1;entryX=0;entryY=0.5;entryDx=0;entryDy=0;" parent="Lxw3tEKo1LNul-f_pS27-3" source="Lxw3tEKo1LNul-f_pS27-70" target="Lxw3tEKo1LNul-f_pS27-52" edge="1">
          <mxGeometry relative="1" as="geometry" />
        </mxCell>
        <mxCell id="Lxw3tEKo1LNul-f_pS27-70" value="Escribir clave de seguridad" style="rounded=1;whiteSpace=wrap;html=1;" parent="Lxw3tEKo1LNul-f_pS27-3" vertex="1">
          <mxGeometry x="2600" y="70" width="120" height="60" as="geometry" />
        </mxCell>
        <mxCell id="Lxw3tEKo1LNul-f_pS27-82" value="" style="endArrow=none;html=1;rounded=0;" parent="Lxw3tEKo1LNul-f_pS27-3" source="Lxw3tEKo1LNul-f_pS27-85" edge="1">
          <mxGeometry width="50" height="50" relative="1" as="geometry">
            <mxPoint x="1790" y="100" as="sourcePoint" />
            <mxPoint x="1790" y="30" as="targetPoint" />
          </mxGeometry>
        </mxCell>
        <mxCell id="Lxw3tEKo1LNul-f_pS27-83" value="" style="endArrow=none;html=1;rounded=0;" parent="Lxw3tEKo1LNul-f_pS27-3" edge="1">
          <mxGeometry width="50" height="50" relative="1" as="geometry">
            <mxPoint x="1830" y="100" as="sourcePoint" />
            <mxPoint x="1830" y="30" as="targetPoint" />
          </mxGeometry>
        </mxCell>
        <mxCell id="Lxw3tEKo1LNul-f_pS27-84" value="" style="endArrow=none;html=1;rounded=0;" parent="Lxw3tEKo1LNul-f_pS27-3" target="Lxw3tEKo1LNul-f_pS27-85" edge="1">
          <mxGeometry width="50" height="50" relative="1" as="geometry">
            <mxPoint x="1790" y="100" as="sourcePoint" />
            <mxPoint x="1790" y="30" as="targetPoint" />
          </mxGeometry>
        </mxCell>
        <mxCell id="Lxw3tEKo1LNul-f_pS27-85" value="3" style="ellipse;whiteSpace=wrap;html=1;aspect=fixed;" parent="Lxw3tEKo1LNul-f_pS27-3" vertex="1">
          <mxGeometry x="1770" y="40" width="40" height="40" as="geometry" />
        </mxCell>
        <mxCell id="Lxw3tEKo1LNul-f_pS27-86" value="4" style="ellipse;whiteSpace=wrap;html=1;aspect=fixed;" parent="Lxw3tEKo1LNul-f_pS27-3" vertex="1">
          <mxGeometry x="1810" y="40" width="40" height="40" as="geometry" />
        </mxCell>
        <mxCell id="Lxw3tEKo1LNul-f_pS27-87" value="Si" style="text;html=1;align=center;verticalAlign=middle;resizable=0;points=[];autosize=1;strokeColor=none;fillColor=none;" parent="Lxw3tEKo1LNul-f_pS27-3" vertex="1">
          <mxGeometry x="2160" y="65" width="30" height="30" as="geometry" />
        </mxCell>
        <mxCell id="Lxw3tEKo1LNul-f_pS27-88" value="No" style="text;html=1;align=center;verticalAlign=middle;resizable=0;points=[];autosize=1;strokeColor=none;fillColor=none;" parent="Lxw3tEKo1LNul-f_pS27-3" vertex="1">
          <mxGeometry x="2060" y="160" width="40" height="30" as="geometry" />
        </mxCell>
        <mxCell id="Lxw3tEKo1LNul-f_pS27-112" style="edgeStyle=orthogonalEdgeStyle;rounded=0;orthogonalLoop=1;jettySize=auto;html=1;entryX=0;entryY=0.5;entryDx=0;entryDy=0;" parent="Lxw3tEKo1LNul-f_pS27-3" source="Lxw3tEKo1LNul-f_pS27-52" target="Lxw3tEKo1LNul-f_pS27-72" edge="1">
          <mxGeometry relative="1" as="geometry" />
        </mxCell>
        <mxCell id="Lxw3tEKo1LNul-f_pS27-52" value="&quot;La clave de seguridad llegara a tu correo que registraste&quot;" style="shape=document;whiteSpace=wrap;html=1;boundedLbl=1;" parent="Lxw3tEKo1LNul-f_pS27-3" vertex="1">
          <mxGeometry x="2770" y="65" width="170" height="70" as="geometry" />
        </mxCell>
        <mxCell id="Lxw3tEKo1LNul-f_pS27-108" style="edgeStyle=orthogonalEdgeStyle;rounded=0;orthogonalLoop=1;jettySize=auto;html=1;entryX=0;entryY=0.5;entryDx=0;entryDy=0;" parent="Lxw3tEKo1LNul-f_pS27-3" source="Lxw3tEKo1LNul-f_pS27-54" target="Lxw3tEKo1LNul-f_pS27-56" edge="1">
          <mxGeometry relative="1" as="geometry" />
        </mxCell>
        <mxCell id="Lxw3tEKo1LNul-f_pS27-54" value="Verificar codigo" style="rounded=1;whiteSpace=wrap;html=1;" parent="Lxw3tEKo1LNul-f_pS27-3" vertex="1">
          <mxGeometry x="2150" y="228" width="120" height="60" as="geometry" />
        </mxCell>
        <mxCell id="Lxw3tEKo1LNul-f_pS27-109" style="edgeStyle=orthogonalEdgeStyle;rounded=0;orthogonalLoop=1;jettySize=auto;html=1;entryX=0;entryY=0.5;entryDx=0;entryDy=0;" parent="Lxw3tEKo1LNul-f_pS27-3" source="Lxw3tEKo1LNul-f_pS27-56" target="Lxw3tEKo1LNul-f_pS27-57" edge="1">
          <mxGeometry relative="1" as="geometry" />
        </mxCell>
        <mxCell id="Lxw3tEKo1LNul-f_pS27-56" value="Registrado correctamente" style="rounded=1;whiteSpace=wrap;html=1;" parent="Lxw3tEKo1LNul-f_pS27-3" vertex="1">
          <mxGeometry x="2320" y="228" width="120" height="60" as="geometry" />
        </mxCell>
        <mxCell id="Lxw3tEKo1LNul-f_pS27-57" value="3" style="ellipse;whiteSpace=wrap;html=1;aspect=fixed;" parent="Lxw3tEKo1LNul-f_pS27-3" vertex="1">
          <mxGeometry x="2510" y="238" width="40" height="40" as="geometry" />
        </mxCell>
        <mxCell id="Lxw3tEKo1LNul-f_pS27-71" style="edgeStyle=orthogonalEdgeStyle;rounded=0;orthogonalLoop=1;jettySize=auto;html=1;entryX=0;entryY=0.5;entryDx=0;entryDy=0;" parent="Lxw3tEKo1LNul-f_pS27-3" source="Lxw3tEKo1LNul-f_pS27-72" target="Lxw3tEKo1LNul-f_pS27-74" edge="1">
          <mxGeometry relative="1" as="geometry" />
        </mxCell>
        <mxCell id="Lxw3tEKo1LNul-f_pS27-72" value="&quot;La clave de seguridad llegara a tu correo que registraste&quot;" style="shape=document;whiteSpace=wrap;html=1;boundedLbl=1;" parent="Lxw3tEKo1LNul-f_pS27-3" vertex="1">
          <mxGeometry x="3020" y="70" width="150" height="58" as="geometry" />
        </mxCell>
        <mxCell id="Lxw3tEKo1LNul-f_pS27-73" style="edgeStyle=orthogonalEdgeStyle;rounded=0;orthogonalLoop=1;jettySize=auto;html=1;entryX=0;entryY=0.5;entryDx=0;entryDy=0;" parent="Lxw3tEKo1LNul-f_pS27-3" source="Lxw3tEKo1LNul-f_pS27-74" target="Lxw3tEKo1LNul-f_pS27-76" edge="1">
          <mxGeometry relative="1" as="geometry" />
        </mxCell>
        <mxCell id="Lxw3tEKo1LNul-f_pS27-74" value="Verificar codigo" style="rounded=1;whiteSpace=wrap;html=1;" parent="Lxw3tEKo1LNul-f_pS27-3" vertex="1">
          <mxGeometry x="3230" y="69" width="120" height="60" as="geometry" />
        </mxCell>
        <mxCell id="Lxw3tEKo1LNul-f_pS27-75" style="edgeStyle=orthogonalEdgeStyle;rounded=0;orthogonalLoop=1;jettySize=auto;html=1;entryX=0;entryY=0.5;entryDx=0;entryDy=0;" parent="Lxw3tEKo1LNul-f_pS27-3" source="Lxw3tEKo1LNul-f_pS27-76" target="Lxw3tEKo1LNul-f_pS27-79" edge="1">
          <mxGeometry relative="1" as="geometry" />
        </mxCell>
        <mxCell id="Lxw3tEKo1LNul-f_pS27-76" value="Ingresar nueva contraseña" style="rounded=1;whiteSpace=wrap;html=1;" parent="Lxw3tEKo1LNul-f_pS27-3" vertex="1">
          <mxGeometry x="3410" y="68" width="120" height="60" as="geometry" />
        </mxCell>
        <mxCell id="Lxw3tEKo1LNul-f_pS27-77" value="4" style="ellipse;whiteSpace=wrap;html=1;aspect=fixed;" parent="Lxw3tEKo1LNul-f_pS27-3" vertex="1">
          <mxGeometry x="3970" y="78" width="40" height="40" as="geometry" />
        </mxCell>
        <mxCell id="Lxw3tEKo1LNul-f_pS27-78" style="edgeStyle=orthogonalEdgeStyle;rounded=0;orthogonalLoop=1;jettySize=auto;html=1;exitX=1;exitY=0.5;exitDx=0;exitDy=0;entryX=0;entryY=0.5;entryDx=0;entryDy=0;" parent="Lxw3tEKo1LNul-f_pS27-3" source="Lxw3tEKo1LNul-f_pS27-79" target="Lxw3tEKo1LNul-f_pS27-81" edge="1">
          <mxGeometry relative="1" as="geometry" />
        </mxCell>
        <mxCell id="Lxw3tEKo1LNul-f_pS27-79" value="Verificar contraseña nueva" style="rounded=1;whiteSpace=wrap;html=1;" parent="Lxw3tEKo1LNul-f_pS27-3" vertex="1">
          <mxGeometry x="3600" y="68" width="120" height="60" as="geometry" />
        </mxCell>
        <mxCell id="Lxw3tEKo1LNul-f_pS27-80" style="edgeStyle=orthogonalEdgeStyle;rounded=0;orthogonalLoop=1;jettySize=auto;html=1;entryX=0;entryY=0.5;entryDx=0;entryDy=0;" parent="Lxw3tEKo1LNul-f_pS27-3" source="Lxw3tEKo1LNul-f_pS27-81" target="Lxw3tEKo1LNul-f_pS27-77" edge="1">
          <mxGeometry relative="1" as="geometry" />
        </mxCell>
        <mxCell id="Lxw3tEKo1LNul-f_pS27-81" value="Contraseña cambiada correctamente" style="rounded=1;whiteSpace=wrap;html=1;" parent="Lxw3tEKo1LNul-f_pS27-3" vertex="1">
          <mxGeometry x="3780" y="68" width="120" height="60" as="geometry" />
        </mxCell>
        <mxCell id="Lxw3tEKo1LNul-f_pS27-104" style="edgeStyle=orthogonalEdgeStyle;rounded=0;orthogonalLoop=1;jettySize=auto;html=1;entryX=0;entryY=0.5;entryDx=0;entryDy=0;" parent="Lxw3tEKo1LNul-f_pS27-3" source="Lxw3tEKo1LNul-f_pS27-59" target="Lxw3tEKo1LNul-f_pS27-89" edge="1">
          <mxGeometry relative="1" as="geometry" />
        </mxCell>
        <mxCell id="Lxw3tEKo1LNul-f_pS27-59" value="Dar click boton Iniciar sesion" style="rounded=1;whiteSpace=wrap;html=1;" parent="Lxw3tEKo1LNul-f_pS27-3" vertex="1">
          <mxGeometry x="2050" y="390" width="120" height="60" as="geometry" />
        </mxCell>
        <mxCell id="Lxw3tEKo1LNul-f_pS27-121" style="edgeStyle=orthogonalEdgeStyle;rounded=0;orthogonalLoop=1;jettySize=auto;html=1;entryX=0;entryY=0.5;entryDx=0;entryDy=0;" parent="Lxw3tEKo1LNul-f_pS27-3" source="Lxw3tEKo1LNul-f_pS27-89" target="Lxw3tEKo1LNul-f_pS27-120" edge="1">
          <mxGeometry relative="1" as="geometry" />
        </mxCell>
        <mxCell id="Lxw3tEKo1LNul-f_pS27-89" value="&quot;Dependiendo de tu rol si ya estas registrado como veterinario te lleva a un menú aparte igual con administrador y clientes&quot;" style="shape=document;whiteSpace=wrap;html=1;boundedLbl=1;" parent="Lxw3tEKo1LNul-f_pS27-3" vertex="1">
          <mxGeometry x="2315" y="380" width="245" height="80" as="geometry" />
        </mxCell>
        <mxCell id="Lxw3tEKo1LNul-f_pS27-124" style="edgeStyle=orthogonalEdgeStyle;rounded=0;orthogonalLoop=1;jettySize=auto;html=1;entryX=0;entryY=0.5;entryDx=0;entryDy=0;" parent="Lxw3tEKo1LNul-f_pS27-3" source="Lxw3tEKo1LNul-f_pS27-120" target="Lxw3tEKo1LNul-f_pS27-123" edge="1">
          <mxGeometry relative="1" as="geometry" />
        </mxCell>
        <mxCell id="Lxw3tEKo1LNul-f_pS27-120" value="Entrar al menu" style="rounded=1;whiteSpace=wrap;html=1;" parent="Lxw3tEKo1LNul-f_pS27-3" vertex="1">
          <mxGeometry x="2640" y="390" width="120" height="60" as="geometry" />
        </mxCell>
        <mxCell id="Lxw3tEKo1LNul-f_pS27-123" value="&quot;Realizar los procesos o consultas dependiendo de tu rol&quot;" style="shape=document;whiteSpace=wrap;html=1;boundedLbl=1;" parent="Lxw3tEKo1LNul-f_pS27-3" vertex="1">
          <mxGeometry x="2840" y="380" width="210" height="80" as="geometry" />
        </mxCell>
        <mxCell id="Lxw3tEKo1LNul-f_pS27-60" style="edgeStyle=orthogonalEdgeStyle;rounded=0;orthogonalLoop=1;jettySize=auto;html=1;entryX=0.5;entryY=0;entryDx=0;entryDy=0;" parent="Lxw3tEKo1LNul-f_pS27-3" source="Lxw3tEKo1LNul-f_pS27-62" target="Lxw3tEKo1LNul-f_pS27-59" edge="1">
          <mxGeometry relative="1" as="geometry" />
        </mxCell>
        <mxCell id="Lxw3tEKo1LNul-f_pS27-119" style="edgeStyle=orthogonalEdgeStyle;rounded=0;orthogonalLoop=1;jettySize=auto;html=1;entryX=0.5;entryY=0;entryDx=0;entryDy=0;" parent="Lxw3tEKo1LNul-f_pS27-1" source="Lxw3tEKo1LNul-f_pS27-21" target="Lxw3tEKo1LNul-f_pS27-24" edge="1">
          <mxGeometry relative="1" as="geometry" />
        </mxCell>
        <mxCell id="Lxw3tEKo1LNul-f_pS27-131" style="edgeStyle=orthogonalEdgeStyle;rounded=0;orthogonalLoop=1;jettySize=auto;html=1;entryX=0.459;entryY=0.058;entryDx=0;entryDy=0;entryPerimeter=0;" parent="Lxw3tEKo1LNul-f_pS27-1" source="Lxw3tEKo1LNul-f_pS27-123" target="Lxw3tEKo1LNul-f_pS27-125" edge="1">
          <mxGeometry relative="1" as="geometry" />
        </mxCell>
        <mxCell id="Lxw3tEKo1LNul-f_pS27-4" value="&lt;font style=&quot;font-size: 28px;&quot;&gt;Mascotas&lt;/font&gt;" style="swimlane;startSize=140;horizontal=0;html=1;" parent="Lxw3tEKo1LNul-f_pS27-1" vertex="1">
          <mxGeometry y="950" width="5270" height="520" as="geometry" />
        </mxCell>
        <mxCell id="Lxw3tEKo1LNul-f_pS27-129" style="edgeStyle=orthogonalEdgeStyle;rounded=0;orthogonalLoop=1;jettySize=auto;html=1;entryX=0;entryY=0.5;entryDx=0;entryDy=0;" parent="Lxw3tEKo1LNul-f_pS27-4" source="Lxw3tEKo1LNul-f_pS27-125" target="Lxw3tEKo1LNul-f_pS27-127" edge="1">
          <mxGeometry relative="1" as="geometry" />
        </mxCell>
        <mxCell id="Lxw3tEKo1LNul-f_pS27-125" value="&quot;Empezamos con las mascotas&quot;" style="shape=document;whiteSpace=wrap;html=1;boundedLbl=1;" parent="Lxw3tEKo1LNul-f_pS27-4" vertex="1">
          <mxGeometry x="2840" y="65" width="230" height="80" as="geometry" />
        </mxCell>
        <mxCell id="Lxw3tEKo1LNul-f_pS27-130" style="edgeStyle=orthogonalEdgeStyle;rounded=0;orthogonalLoop=1;jettySize=auto;html=1;entryX=0;entryY=0.5;entryDx=0;entryDy=0;" parent="Lxw3tEKo1LNul-f_pS27-4" source="Lxw3tEKo1LNul-f_pS27-127" target="Lxw3tEKo1LNul-f_pS27-128" edge="1">
          <mxGeometry relative="1" as="geometry" />
        </mxCell>
        <mxCell id="Lxw3tEKo1LNul-f_pS27-127" value="Entrar a la sección mascotas" style="rounded=1;whiteSpace=wrap;html=1;" parent="Lxw3tEKo1LNul-f_pS27-4" vertex="1">
          <mxGeometry x="3110" y="75" width="120" height="60" as="geometry" />
        </mxCell>
        <mxCell id="Lxw3tEKo1LNul-f_pS27-134" style="edgeStyle=orthogonalEdgeStyle;rounded=0;orthogonalLoop=1;jettySize=auto;html=1;entryX=0.5;entryY=0;entryDx=0;entryDy=0;" parent="Lxw3tEKo1LNul-f_pS27-4" source="Lxw3tEKo1LNul-f_pS27-128" target="Lxw3tEKo1LNul-f_pS27-133" edge="1">
          <mxGeometry relative="1" as="geometry" />
        </mxCell>
        <mxCell id="Lxw3tEKo1LNul-f_pS27-152" style="edgeStyle=orthogonalEdgeStyle;rounded=0;orthogonalLoop=1;jettySize=auto;html=1;entryX=0;entryY=0.5;entryDx=0;entryDy=0;" parent="Lxw3tEKo1LNul-f_pS27-4" source="Lxw3tEKo1LNul-f_pS27-128" target="Lxw3tEKo1LNul-f_pS27-151" edge="1">
          <mxGeometry relative="1" as="geometry" />
        </mxCell>
        <mxCell id="Lxw3tEKo1LNul-f_pS27-128" value="Tienes una mascota registrada" style="rhombus;whiteSpace=wrap;html=1;" parent="Lxw3tEKo1LNul-f_pS27-4" vertex="1">
          <mxGeometry x="3290" y="50" width="100" height="110" as="geometry" />
        </mxCell>
        <mxCell id="tCxssxvuFEsz2nQ4bnv7-7" style="edgeStyle=orthogonalEdgeStyle;rounded=0;orthogonalLoop=1;jettySize=auto;html=1;entryX=0;entryY=0.5;entryDx=0;entryDy=0;" edge="1" parent="Lxw3tEKo1LNul-f_pS27-4" source="Lxw3tEKo1LNul-f_pS27-133" target="Lxw3tEKo1LNul-f_pS27-142">
          <mxGeometry relative="1" as="geometry" />
        </mxCell>
        <mxCell id="Lxw3tEKo1LNul-f_pS27-133" value="Ingresar boton registrar mascota" style="rounded=1;whiteSpace=wrap;html=1;" parent="Lxw3tEKo1LNul-f_pS27-4" vertex="1">
          <mxGeometry x="3280" y="230" width="120" height="60" as="geometry" />
        </mxCell>
        <mxCell id="tCxssxvuFEsz2nQ4bnv7-8" style="edgeStyle=orthogonalEdgeStyle;rounded=0;orthogonalLoop=1;jettySize=auto;html=1;entryX=0;entryY=0.5;entryDx=0;entryDy=0;" edge="1" parent="Lxw3tEKo1LNul-f_pS27-4" source="Lxw3tEKo1LNul-f_pS27-142" target="Lxw3tEKo1LNul-f_pS27-143">
          <mxGeometry relative="1" as="geometry" />
        </mxCell>
        <mxCell id="Lxw3tEKo1LNul-f_pS27-142" value="Registra los datos de tu mascota" style="rounded=1;whiteSpace=wrap;html=1;" parent="Lxw3tEKo1LNul-f_pS27-4" vertex="1">
          <mxGeometry x="3440" y="230" width="120" height="60" as="geometry" />
        </mxCell>
        <mxCell id="tCxssxvuFEsz2nQ4bnv7-9" style="edgeStyle=orthogonalEdgeStyle;rounded=0;orthogonalLoop=1;jettySize=auto;html=1;entryX=0;entryY=0.5;entryDx=0;entryDy=0;" edge="1" parent="Lxw3tEKo1LNul-f_pS27-4" source="Lxw3tEKo1LNul-f_pS27-143" target="Lxw3tEKo1LNul-f_pS27-144">
          <mxGeometry relative="1" as="geometry" />
        </mxCell>
        <mxCell id="Lxw3tEKo1LNul-f_pS27-143" value="Registro exitoso" style="rounded=1;whiteSpace=wrap;html=1;" parent="Lxw3tEKo1LNul-f_pS27-4" vertex="1">
          <mxGeometry x="3600" y="230" width="120" height="60" as="geometry" />
        </mxCell>
        <mxCell id="Lxw3tEKo1LNul-f_pS27-144" value="&quot;El veterinario es el unico que puede registrar una mascota, el cliente tiene un boton para solicitar registrar una mascota&quot;" style="shape=document;whiteSpace=wrap;html=1;boundedLbl=1;" parent="Lxw3tEKo1LNul-f_pS27-4" vertex="1">
          <mxGeometry x="3760" y="220" width="290" height="80" as="geometry" />
        </mxCell>
        <mxCell id="tCxssxvuFEsz2nQ4bnv7-4" style="edgeStyle=orthogonalEdgeStyle;rounded=0;orthogonalLoop=1;jettySize=auto;html=1;entryX=0;entryY=0.5;entryDx=0;entryDy=0;" edge="1" parent="Lxw3tEKo1LNul-f_pS27-4" source="Lxw3tEKo1LNul-f_pS27-151" target="tCxssxvuFEsz2nQ4bnv7-2">
          <mxGeometry relative="1" as="geometry" />
        </mxCell>
        <mxCell id="Lxw3tEKo1LNul-f_pS27-151" value="&quot;En tu mascota registrada botones para registrar nueva mascota y ver historial&quot;" style="shape=document;whiteSpace=wrap;html=1;boundedLbl=1;" parent="Lxw3tEKo1LNul-f_pS27-4" vertex="1">
          <mxGeometry x="3460" y="65" width="240" height="80" as="geometry" />
        </mxCell>
        <mxCell id="tCxssxvuFEsz2nQ4bnv7-6" style="edgeStyle=orthogonalEdgeStyle;rounded=0;orthogonalLoop=1;jettySize=auto;html=1;entryX=0;entryY=0.5;entryDx=0;entryDy=0;" edge="1" parent="Lxw3tEKo1LNul-f_pS27-4" source="tCxssxvuFEsz2nQ4bnv7-2" target="tCxssxvuFEsz2nQ4bnv7-22">
          <mxGeometry relative="1" as="geometry">
            <mxPoint x="4040" y="105" as="targetPoint" />
          </mxGeometry>
        </mxCell>
        <mxCell id="tCxssxvuFEsz2nQ4bnv7-2" value="&quot;Para actualizar, registrar y deshabilitar se le informa a un veterinario para realizar el proceso que desee&quot;" style="shape=document;whiteSpace=wrap;html=1;boundedLbl=1;" vertex="1" parent="Lxw3tEKo1LNul-f_pS27-4">
          <mxGeometry x="3780" y="65" width="220" height="80" as="geometry" />
        </mxCell>
        <mxCell id="tCxssxvuFEsz2nQ4bnv7-10" value="" style="endArrow=none;html=1;rounded=0;exitX=1;exitY=0.5;exitDx=0;exitDy=0;" edge="1" parent="Lxw3tEKo1LNul-f_pS27-4" source="Lxw3tEKo1LNul-f_pS27-144">
          <mxGeometry width="50" height="50" relative="1" as="geometry">
            <mxPoint x="4110" y="260" as="sourcePoint" />
            <mxPoint x="4150" y="260" as="targetPoint" />
          </mxGeometry>
        </mxCell>
        <mxCell id="tCxssxvuFEsz2nQ4bnv7-11" value="5" style="ellipse;whiteSpace=wrap;html=1;aspect=fixed;" vertex="1" parent="Lxw3tEKo1LNul-f_pS27-4">
          <mxGeometry x="4080" y="240" width="40" height="40" as="geometry" />
        </mxCell>
        <mxCell id="tCxssxvuFEsz2nQ4bnv7-20" value="" style="endArrow=none;html=1;rounded=0;" edge="1" parent="Lxw3tEKo1LNul-f_pS27-4">
          <mxGeometry width="50" height="50" relative="1" as="geometry">
            <mxPoint x="4080" y="110" as="sourcePoint" />
            <mxPoint x="4080" y="20" as="targetPoint" />
          </mxGeometry>
        </mxCell>
        <mxCell id="tCxssxvuFEsz2nQ4bnv7-16" value="5" style="ellipse;whiteSpace=wrap;html=1;aspect=fixed;" vertex="1" parent="Lxw3tEKo1LNul-f_pS27-4">
          <mxGeometry x="4060" y="50" width="40" height="40" as="geometry" />
        </mxCell>
        <mxCell id="tCxssxvuFEsz2nQ4bnv7-26" style="edgeStyle=orthogonalEdgeStyle;rounded=0;orthogonalLoop=1;jettySize=auto;html=1;exitX=0.5;exitY=1;exitDx=0;exitDy=0;" edge="1" parent="Lxw3tEKo1LNul-f_pS27-4" source="tCxssxvuFEsz2nQ4bnv7-22" target="tCxssxvuFEsz2nQ4bnv7-24">
          <mxGeometry relative="1" as="geometry" />
        </mxCell>
        <mxCell id="tCxssxvuFEsz2nQ4bnv7-27" style="edgeStyle=orthogonalEdgeStyle;rounded=0;orthogonalLoop=1;jettySize=auto;html=1;" edge="1" parent="Lxw3tEKo1LNul-f_pS27-4" source="tCxssxvuFEsz2nQ4bnv7-22" target="tCxssxvuFEsz2nQ4bnv7-25">
          <mxGeometry relative="1" as="geometry" />
        </mxCell>
        <mxCell id="tCxssxvuFEsz2nQ4bnv7-22" value="Deseas entrar a ver historial medico?" style="rhombus;whiteSpace=wrap;html=1;" vertex="1" parent="Lxw3tEKo1LNul-f_pS27-4">
          <mxGeometry x="4190" y="42.5" width="100" height="125" as="geometry" />
        </mxCell>
        <mxCell id="tCxssxvuFEsz2nQ4bnv7-56" style="edgeStyle=orthogonalEdgeStyle;rounded=0;orthogonalLoop=1;jettySize=auto;html=1;entryX=0.5;entryY=0;entryDx=0;entryDy=0;" edge="1" parent="Lxw3tEKo1LNul-f_pS27-4" source="tCxssxvuFEsz2nQ4bnv7-24" target="tCxssxvuFEsz2nQ4bnv7-30">
          <mxGeometry relative="1" as="geometry" />
        </mxCell>
        <mxCell id="tCxssxvuFEsz2nQ4bnv7-24" value="Salir de la seccion" style="rounded=1;whiteSpace=wrap;html=1;" vertex="1" parent="Lxw3tEKo1LNul-f_pS27-4">
          <mxGeometry x="4180" y="240" width="120" height="60" as="geometry" />
        </mxCell>
        <mxCell id="tCxssxvuFEsz2nQ4bnv7-46" style="edgeStyle=orthogonalEdgeStyle;rounded=0;orthogonalLoop=1;jettySize=auto;html=1;entryX=0;entryY=0.5;entryDx=0;entryDy=0;" edge="1" parent="Lxw3tEKo1LNul-f_pS27-4" source="tCxssxvuFEsz2nQ4bnv7-25" target="tCxssxvuFEsz2nQ4bnv7-45">
          <mxGeometry relative="1" as="geometry" />
        </mxCell>
        <mxCell id="tCxssxvuFEsz2nQ4bnv7-25" value="entrar a historial de la mascota" style="rounded=1;whiteSpace=wrap;html=1;" vertex="1" parent="Lxw3tEKo1LNul-f_pS27-4">
          <mxGeometry x="4380" y="75" width="120" height="60" as="geometry" />
        </mxCell>
        <mxCell id="tCxssxvuFEsz2nQ4bnv7-29" value="No" style="text;html=1;align=center;verticalAlign=middle;resizable=0;points=[];autosize=1;strokeColor=none;fillColor=none;" vertex="1" parent="Lxw3tEKo1LNul-f_pS27-4">
          <mxGeometry x="4240" y="180" width="40" height="30" as="geometry" />
        </mxCell>
        <mxCell id="tCxssxvuFEsz2nQ4bnv7-30" value="&quot;Vamos a ir a la sección de servicios&quot;" style="shape=document;whiteSpace=wrap;html=1;boundedLbl=1;" vertex="1" parent="Lxw3tEKo1LNul-f_pS27-4">
          <mxGeometry x="4180" y="360" width="120" height="80" as="geometry" />
        </mxCell>
        <mxCell id="tCxssxvuFEsz2nQ4bnv7-49" style="edgeStyle=orthogonalEdgeStyle;rounded=0;orthogonalLoop=1;jettySize=auto;html=1;" edge="1" parent="Lxw3tEKo1LNul-f_pS27-4" source="tCxssxvuFEsz2nQ4bnv7-45" target="tCxssxvuFEsz2nQ4bnv7-47">
          <mxGeometry relative="1" as="geometry" />
        </mxCell>
        <mxCell id="tCxssxvuFEsz2nQ4bnv7-45" value="mostrar historial medico de la mascota" style="rounded=1;whiteSpace=wrap;html=1;" vertex="1" parent="Lxw3tEKo1LNul-f_pS27-4">
          <mxGeometry x="4560" y="75" width="120" height="60" as="geometry" />
        </mxCell>
        <mxCell id="tCxssxvuFEsz2nQ4bnv7-47" value="&quot;El historial medico solo lo puede registrar el veterinario&quot;" style="shape=document;whiteSpace=wrap;html=1;boundedLbl=1;" vertex="1" parent="Lxw3tEKo1LNul-f_pS27-4">
          <mxGeometry x="4730" y="65" width="210" height="80" as="geometry" />
        </mxCell>
        <mxCell id="tCxssxvuFEsz2nQ4bnv7-51" value="" style="endArrow=none;html=1;rounded=0;" edge="1" parent="Lxw3tEKo1LNul-f_pS27-4">
          <mxGeometry width="50" height="50" relative="1" as="geometry">
            <mxPoint x="4940" y="100" as="sourcePoint" />
            <mxPoint x="5080" y="100" as="targetPoint" />
          </mxGeometry>
        </mxCell>
        <mxCell id="tCxssxvuFEsz2nQ4bnv7-52" value="6" style="ellipse;whiteSpace=wrap;html=1;aspect=fixed;" vertex="1" parent="Lxw3tEKo1LNul-f_pS27-4">
          <mxGeometry x="4980" y="85" width="40" height="40" as="geometry" />
        </mxCell>
        <mxCell id="tCxssxvuFEsz2nQ4bnv7-54" value="" style="endArrow=none;html=1;rounded=0;" edge="1" parent="Lxw3tEKo1LNul-f_pS27-4">
          <mxGeometry width="50" height="50" relative="1" as="geometry">
            <mxPoint x="4240" y="215" as="sourcePoint" />
            <mxPoint x="4380" y="215" as="targetPoint" />
          </mxGeometry>
        </mxCell>
        <mxCell id="tCxssxvuFEsz2nQ4bnv7-55" value="6" style="ellipse;whiteSpace=wrap;html=1;aspect=fixed;" vertex="1" parent="Lxw3tEKo1LNul-f_pS27-4">
          <mxGeometry x="4280" y="200" width="40" height="40" as="geometry" />
        </mxCell>
        <mxCell id="Lxw3tEKo1LNul-f_pS27-139" value="Si" style="text;html=1;align=center;verticalAlign=middle;resizable=0;points=[];autosize=1;strokeColor=none;fillColor=none;" parent="1" vertex="1">
          <mxGeometry x="-1805" y="-2582" width="30" height="30" as="geometry" />
        </mxCell>
        <mxCell id="Lxw3tEKo1LNul-f_pS27-140" value="No" style="text;html=1;align=center;verticalAlign=middle;resizable=0;points=[];autosize=1;strokeColor=none;fillColor=none;" parent="1" vertex="1">
          <mxGeometry x="-1910" y="-2482" width="40" height="30" as="geometry" />
        </mxCell>
        <mxCell id="tCxssxvuFEsz2nQ4bnv7-28" value="Si" style="text;html=1;align=center;verticalAlign=middle;resizable=0;points=[];autosize=1;strokeColor=none;fillColor=none;" vertex="1" parent="1">
          <mxGeometry x="-895" y="-2572" width="30" height="30" as="geometry" />
        </mxCell>
        <mxCell id="tCxssxvuFEsz2nQ4bnv7-41" value="" style="swimlane;childLayout=stackLayout;resizeParent=1;resizeParentMax=0;horizontal=1;startSize=20;horizontalStack=0;html=1;" vertex="1" parent="1">
          <mxGeometry x="-6000" y="-2520" width="5280" height="1960" as="geometry" />
        </mxCell>
        <mxCell id="tCxssxvuFEsz2nQ4bnv7-42" value="&lt;font style=&quot;font-size: 28px;&quot;&gt;Servicios&lt;/font&gt;" style="swimlane;startSize=140;horizontal=0;html=1;" vertex="1" parent="tCxssxvuFEsz2nQ4bnv7-41">
          <mxGeometry y="20" width="5280" height="360" as="geometry" />
        </mxCell>
        <mxCell id="tCxssxvuFEsz2nQ4bnv7-88" style="edgeStyle=orthogonalEdgeStyle;rounded=0;orthogonalLoop=1;jettySize=auto;html=1;entryX=0;entryY=0.5;entryDx=0;entryDy=0;" edge="1" parent="tCxssxvuFEsz2nQ4bnv7-42" source="tCxssxvuFEsz2nQ4bnv7-57" target="tCxssxvuFEsz2nQ4bnv7-59">
          <mxGeometry relative="1" as="geometry" />
        </mxCell>
        <mxCell id="tCxssxvuFEsz2nQ4bnv7-57" value="Entrar a servicios" style="rounded=1;whiteSpace=wrap;html=1;" vertex="1" parent="tCxssxvuFEsz2nQ4bnv7-42">
          <mxGeometry x="200" y="30" width="120" height="60" as="geometry" />
        </mxCell>
        <mxCell id="tCxssxvuFEsz2nQ4bnv7-89" style="edgeStyle=orthogonalEdgeStyle;rounded=0;orthogonalLoop=1;jettySize=auto;html=1;entryX=0;entryY=0.5;entryDx=0;entryDy=0;" edge="1" parent="tCxssxvuFEsz2nQ4bnv7-42" source="tCxssxvuFEsz2nQ4bnv7-59" target="tCxssxvuFEsz2nQ4bnv7-61">
          <mxGeometry relative="1" as="geometry" />
        </mxCell>
        <mxCell id="tCxssxvuFEsz2nQ4bnv7-59" value="Mostrar servicios que ofrece Flooky Pets" style="rounded=1;whiteSpace=wrap;html=1;" vertex="1" parent="tCxssxvuFEsz2nQ4bnv7-42">
          <mxGeometry x="370" y="30" width="120" height="60" as="geometry" />
        </mxCell>
        <mxCell id="tCxssxvuFEsz2nQ4bnv7-90" style="edgeStyle=orthogonalEdgeStyle;rounded=0;orthogonalLoop=1;jettySize=auto;html=1;entryX=0;entryY=0.5;entryDx=0;entryDy=0;" edge="1" parent="tCxssxvuFEsz2nQ4bnv7-42" source="tCxssxvuFEsz2nQ4bnv7-61" target="tCxssxvuFEsz2nQ4bnv7-63">
          <mxGeometry relative="1" as="geometry" />
        </mxCell>
        <mxCell id="tCxssxvuFEsz2nQ4bnv7-61" value="&quot;Visualización de los servicios que ofrece Flooky Pets&quot;" style="shape=document;whiteSpace=wrap;html=1;boundedLbl=1;" vertex="1" parent="tCxssxvuFEsz2nQ4bnv7-42">
          <mxGeometry x="550" y="20" width="190" height="80" as="geometry" />
        </mxCell>
        <mxCell id="tCxssxvuFEsz2nQ4bnv7-91" style="edgeStyle=orthogonalEdgeStyle;rounded=0;orthogonalLoop=1;jettySize=auto;html=1;entryX=0;entryY=0.5;entryDx=0;entryDy=0;" edge="1" parent="tCxssxvuFEsz2nQ4bnv7-42" source="tCxssxvuFEsz2nQ4bnv7-63" target="tCxssxvuFEsz2nQ4bnv7-69">
          <mxGeometry relative="1" as="geometry" />
        </mxCell>
        <mxCell id="tCxssxvuFEsz2nQ4bnv7-63" value="&quot;Registrar, actualizar y deshabilitar servicios solo lo puede hacer el administrador &quot;" style="shape=document;whiteSpace=wrap;html=1;boundedLbl=1;" vertex="1" parent="tCxssxvuFEsz2nQ4bnv7-42">
          <mxGeometry x="800" y="20" width="195" height="80" as="geometry" />
        </mxCell>
        <mxCell id="tCxssxvuFEsz2nQ4bnv7-74" style="edgeStyle=orthogonalEdgeStyle;rounded=0;orthogonalLoop=1;jettySize=auto;html=1;entryX=0;entryY=0.5;entryDx=0;entryDy=0;" edge="1" parent="tCxssxvuFEsz2nQ4bnv7-42" source="tCxssxvuFEsz2nQ4bnv7-68" target="tCxssxvuFEsz2nQ4bnv7-73">
          <mxGeometry relative="1" as="geometry" />
        </mxCell>
        <mxCell id="tCxssxvuFEsz2nQ4bnv7-79" style="edgeStyle=orthogonalEdgeStyle;rounded=0;orthogonalLoop=1;jettySize=auto;html=1;" edge="1" parent="tCxssxvuFEsz2nQ4bnv7-42" source="tCxssxvuFEsz2nQ4bnv7-68" target="tCxssxvuFEsz2nQ4bnv7-76">
          <mxGeometry relative="1" as="geometry" />
        </mxCell>
        <mxCell id="tCxssxvuFEsz2nQ4bnv7-68" value="Deseas salir de servicios ?" style="rhombus;whiteSpace=wrap;html=1;" vertex="1" parent="tCxssxvuFEsz2nQ4bnv7-42">
          <mxGeometry x="1305" width="112.5" height="120" as="geometry" />
        </mxCell>
        <mxCell id="tCxssxvuFEsz2nQ4bnv7-92" style="edgeStyle=orthogonalEdgeStyle;rounded=0;orthogonalLoop=1;jettySize=auto;html=1;entryX=0;entryY=0.5;entryDx=0;entryDy=0;" edge="1" parent="tCxssxvuFEsz2nQ4bnv7-42" source="tCxssxvuFEsz2nQ4bnv7-69" target="tCxssxvuFEsz2nQ4bnv7-68">
          <mxGeometry relative="1" as="geometry" />
        </mxCell>
        <mxCell id="tCxssxvuFEsz2nQ4bnv7-69" value="&quot;En cada servicio tiene la opción de agendar una cita en el servicio escogido&quot;" style="shape=document;whiteSpace=wrap;html=1;boundedLbl=1;" vertex="1" parent="tCxssxvuFEsz2nQ4bnv7-42">
          <mxGeometry x="1050" y="20" width="210" height="80" as="geometry" />
        </mxCell>
        <mxCell id="tCxssxvuFEsz2nQ4bnv7-85" style="edgeStyle=orthogonalEdgeStyle;rounded=0;orthogonalLoop=1;jettySize=auto;html=1;entryX=0;entryY=0.5;entryDx=0;entryDy=0;" edge="1" parent="tCxssxvuFEsz2nQ4bnv7-42" source="tCxssxvuFEsz2nQ4bnv7-73" target="tCxssxvuFEsz2nQ4bnv7-84">
          <mxGeometry relative="1" as="geometry" />
        </mxCell>
        <mxCell id="tCxssxvuFEsz2nQ4bnv7-73" value="Salir de la sección Servicios" style="rounded=1;whiteSpace=wrap;html=1;" vertex="1" parent="tCxssxvuFEsz2nQ4bnv7-42">
          <mxGeometry x="1475" y="30" width="120" height="60" as="geometry" />
        </mxCell>
        <mxCell id="tCxssxvuFEsz2nQ4bnv7-93" style="edgeStyle=orthogonalEdgeStyle;rounded=0;orthogonalLoop=1;jettySize=auto;html=1;entryX=0.5;entryY=0;entryDx=0;entryDy=0;" edge="1" parent="tCxssxvuFEsz2nQ4bnv7-42" source="tCxssxvuFEsz2nQ4bnv7-76" target="tCxssxvuFEsz2nQ4bnv7-77">
          <mxGeometry relative="1" as="geometry" />
        </mxCell>
        <mxCell id="tCxssxvuFEsz2nQ4bnv7-76" value="&quot;Vamos a agendar una cita con un servicio especifico&quot;" style="shape=document;whiteSpace=wrap;html=1;boundedLbl=1;" vertex="1" parent="tCxssxvuFEsz2nQ4bnv7-42">
          <mxGeometry x="1286.25" y="160" width="150" height="80" as="geometry" />
        </mxCell>
        <mxCell id="tCxssxvuFEsz2nQ4bnv7-94" style="edgeStyle=orthogonalEdgeStyle;rounded=0;orthogonalLoop=1;jettySize=auto;html=1;entryX=0.5;entryY=0;entryDx=0;entryDy=0;" edge="1" parent="tCxssxvuFEsz2nQ4bnv7-42" source="tCxssxvuFEsz2nQ4bnv7-77" target="tCxssxvuFEsz2nQ4bnv7-78">
          <mxGeometry relative="1" as="geometry" />
        </mxCell>
        <mxCell id="tCxssxvuFEsz2nQ4bnv7-77" value="Escoger servicio" style="rounded=1;whiteSpace=wrap;html=1;" vertex="1" parent="tCxssxvuFEsz2nQ4bnv7-42">
          <mxGeometry x="1301.25" y="280" width="120" height="60" as="geometry" />
        </mxCell>
        <mxCell id="tCxssxvuFEsz2nQ4bnv7-84" value="&quot;Vamos a modificar nuestro perfil&quot;" style="shape=document;whiteSpace=wrap;html=1;boundedLbl=1;" vertex="1" parent="tCxssxvuFEsz2nQ4bnv7-42">
          <mxGeometry x="1635" y="20" width="125" height="80" as="geometry" />
        </mxCell>
        <mxCell id="tCxssxvuFEsz2nQ4bnv7-78" value="Agendar cita del servicio seleccionado" style="rounded=1;whiteSpace=wrap;html=1;" vertex="1" parent="tCxssxvuFEsz2nQ4bnv7-42">
          <mxGeometry x="1301.25" y="390" width="120" height="60" as="geometry" />
        </mxCell>
        <mxCell id="tCxssxvuFEsz2nQ4bnv7-75" value="Si" style="text;html=1;align=center;verticalAlign=middle;resizable=0;points=[];autosize=1;strokeColor=none;fillColor=none;" vertex="1" parent="tCxssxvuFEsz2nQ4bnv7-42">
          <mxGeometry x="1430" y="18" width="30" height="30" as="geometry" />
        </mxCell>
        <mxCell id="tCxssxvuFEsz2nQ4bnv7-82" value="No" style="text;html=1;align=center;verticalAlign=middle;resizable=0;points=[];autosize=1;strokeColor=none;fillColor=none;" vertex="1" parent="tCxssxvuFEsz2nQ4bnv7-42">
          <mxGeometry x="1365" y="108" width="40" height="30" as="geometry" />
        </mxCell>
        <mxCell id="tCxssxvuFEsz2nQ4bnv7-95" value="" style="endArrow=none;html=1;rounded=0;" edge="1" parent="tCxssxvuFEsz2nQ4bnv7-42">
          <mxGeometry width="50" height="50" relative="1" as="geometry">
            <mxPoint x="1760" y="60" as="sourcePoint" />
            <mxPoint x="1860" y="60" as="targetPoint" />
          </mxGeometry>
        </mxCell>
        <mxCell id="tCxssxvuFEsz2nQ4bnv7-96" value="7" style="ellipse;whiteSpace=wrap;html=1;aspect=fixed;" vertex="1" parent="tCxssxvuFEsz2nQ4bnv7-42">
          <mxGeometry x="1780" y="40" width="40" height="40" as="geometry" />
        </mxCell>
        <mxCell id="tCxssxvuFEsz2nQ4bnv7-122" value="" style="endArrow=none;html=1;rounded=0;" edge="1" parent="tCxssxvuFEsz2nQ4bnv7-42">
          <mxGeometry width="50" height="50" relative="1" as="geometry">
            <mxPoint x="1361.25" y="260" as="sourcePoint" />
            <mxPoint x="1530" y="260" as="targetPoint" />
          </mxGeometry>
        </mxCell>
        <mxCell id="tCxssxvuFEsz2nQ4bnv7-123" value="8" style="ellipse;whiteSpace=wrap;html=1;aspect=fixed;" vertex="1" parent="tCxssxvuFEsz2nQ4bnv7-42">
          <mxGeometry x="1450" y="230" width="50" height="50" as="geometry" />
        </mxCell>
        <mxCell id="tCxssxvuFEsz2nQ4bnv7-43" value="&lt;font style=&quot;font-size: 28px;&quot;&gt;Citas&lt;/font&gt;" style="swimlane;startSize=140;horizontal=0;html=1;" vertex="1" parent="tCxssxvuFEsz2nQ4bnv7-41">
          <mxGeometry y="380" width="5280" height="430" as="geometry" />
        </mxCell>
        <mxCell id="tCxssxvuFEsz2nQ4bnv7-100" style="edgeStyle=orthogonalEdgeStyle;rounded=0;orthogonalLoop=1;jettySize=auto;html=1;entryX=0;entryY=0.5;entryDx=0;entryDy=0;" edge="1" parent="tCxssxvuFEsz2nQ4bnv7-43" source="tCxssxvuFEsz2nQ4bnv7-97" target="tCxssxvuFEsz2nQ4bnv7-99">
          <mxGeometry relative="1" as="geometry" />
        </mxCell>
        <mxCell id="tCxssxvuFEsz2nQ4bnv7-97" value="Registrar los datos solicitados" style="rounded=1;whiteSpace=wrap;html=1;" vertex="1" parent="tCxssxvuFEsz2nQ4bnv7-43">
          <mxGeometry x="1470" y="30" width="120" height="60" as="geometry" />
        </mxCell>
        <mxCell id="tCxssxvuFEsz2nQ4bnv7-102" style="edgeStyle=orthogonalEdgeStyle;rounded=0;orthogonalLoop=1;jettySize=auto;html=1;entryX=0;entryY=0.5;entryDx=0;entryDy=0;" edge="1" parent="tCxssxvuFEsz2nQ4bnv7-43" source="tCxssxvuFEsz2nQ4bnv7-99" target="tCxssxvuFEsz2nQ4bnv7-101">
          <mxGeometry relative="1" as="geometry" />
        </mxCell>
        <mxCell id="tCxssxvuFEsz2nQ4bnv7-99" value="Agendar cita&amp;nbsp;" style="rounded=1;whiteSpace=wrap;html=1;" vertex="1" parent="tCxssxvuFEsz2nQ4bnv7-43">
          <mxGeometry x="1635" y="30" width="120" height="60" as="geometry" />
        </mxCell>
        <mxCell id="tCxssxvuFEsz2nQ4bnv7-107" style="edgeStyle=orthogonalEdgeStyle;rounded=0;orthogonalLoop=1;jettySize=auto;html=1;entryX=0;entryY=0.5;entryDx=0;entryDy=0;" edge="1" parent="tCxssxvuFEsz2nQ4bnv7-43" source="tCxssxvuFEsz2nQ4bnv7-101" target="tCxssxvuFEsz2nQ4bnv7-105">
          <mxGeometry relative="1" as="geometry" />
        </mxCell>
        <mxCell id="tCxssxvuFEsz2nQ4bnv7-101" value="&quot;Al agendar la cita le llegara una notificación al veterinario para aceptar o rechazar la cita&quot;" style="shape=document;whiteSpace=wrap;html=1;boundedLbl=1;" vertex="1" parent="tCxssxvuFEsz2nQ4bnv7-43">
          <mxGeometry x="1790" y="20" width="180" height="80" as="geometry" />
        </mxCell>
        <mxCell id="tCxssxvuFEsz2nQ4bnv7-110" style="edgeStyle=orthogonalEdgeStyle;rounded=0;orthogonalLoop=1;jettySize=auto;html=1;entryX=0.5;entryY=0;entryDx=0;entryDy=0;" edge="1" parent="tCxssxvuFEsz2nQ4bnv7-43" source="tCxssxvuFEsz2nQ4bnv7-105" target="tCxssxvuFEsz2nQ4bnv7-109">
          <mxGeometry relative="1" as="geometry" />
        </mxCell>
        <mxCell id="tCxssxvuFEsz2nQ4bnv7-111" style="edgeStyle=orthogonalEdgeStyle;rounded=0;orthogonalLoop=1;jettySize=auto;html=1;entryX=0;entryY=0.5;entryDx=0;entryDy=0;" edge="1" parent="tCxssxvuFEsz2nQ4bnv7-43" source="tCxssxvuFEsz2nQ4bnv7-105" target="tCxssxvuFEsz2nQ4bnv7-108">
          <mxGeometry relative="1" as="geometry" />
        </mxCell>
        <mxCell id="tCxssxvuFEsz2nQ4bnv7-105" value="Aceptaron tu cita?" style="rhombus;whiteSpace=wrap;html=1;" vertex="1" parent="tCxssxvuFEsz2nQ4bnv7-43">
          <mxGeometry x="2010" y="20" width="80" height="80" as="geometry" />
        </mxCell>
        <mxCell id="tCxssxvuFEsz2nQ4bnv7-115" style="edgeStyle=orthogonalEdgeStyle;rounded=0;orthogonalLoop=1;jettySize=auto;html=1;entryX=0;entryY=0.5;entryDx=0;entryDy=0;" edge="1" parent="tCxssxvuFEsz2nQ4bnv7-43" source="tCxssxvuFEsz2nQ4bnv7-108" target="tCxssxvuFEsz2nQ4bnv7-114">
          <mxGeometry relative="1" as="geometry" />
        </mxCell>
        <mxCell id="tCxssxvuFEsz2nQ4bnv7-108" value="Recibir notificación de cita aceptada" style="rounded=1;whiteSpace=wrap;html=1;" vertex="1" parent="tCxssxvuFEsz2nQ4bnv7-43">
          <mxGeometry x="2140" y="30" width="120" height="60" as="geometry" />
        </mxCell>
        <mxCell id="tCxssxvuFEsz2nQ4bnv7-126" style="edgeStyle=orthogonalEdgeStyle;rounded=0;orthogonalLoop=1;jettySize=auto;html=1;" edge="1" parent="tCxssxvuFEsz2nQ4bnv7-43" source="tCxssxvuFEsz2nQ4bnv7-109" target="tCxssxvuFEsz2nQ4bnv7-125">
          <mxGeometry relative="1" as="geometry" />
        </mxCell>
        <mxCell id="tCxssxvuFEsz2nQ4bnv7-109" value="&quot;Los horarios escogidos no están disponibles&quot;" style="shape=document;whiteSpace=wrap;html=1;boundedLbl=1;" vertex="1" parent="tCxssxvuFEsz2nQ4bnv7-43">
          <mxGeometry x="1990" y="140" width="120" height="80" as="geometry" />
        </mxCell>
        <mxCell id="tCxssxvuFEsz2nQ4bnv7-117" style="edgeStyle=orthogonalEdgeStyle;rounded=0;orthogonalLoop=1;jettySize=auto;html=1;entryX=0;entryY=0.5;entryDx=0;entryDy=0;" edge="1" parent="tCxssxvuFEsz2nQ4bnv7-43" source="tCxssxvuFEsz2nQ4bnv7-114" target="tCxssxvuFEsz2nQ4bnv7-116">
          <mxGeometry relative="1" as="geometry" />
        </mxCell>
        <mxCell id="tCxssxvuFEsz2nQ4bnv7-114" value="Recibir información de la cita registrada correctamente" style="rounded=1;whiteSpace=wrap;html=1;" vertex="1" parent="tCxssxvuFEsz2nQ4bnv7-43">
          <mxGeometry x="2310" y="30" width="120" height="60" as="geometry" />
        </mxCell>
        <mxCell id="tCxssxvuFEsz2nQ4bnv7-112" value="No" style="text;html=1;align=center;verticalAlign=middle;resizable=0;points=[];autosize=1;strokeColor=none;fillColor=none;" vertex="1" parent="tCxssxvuFEsz2nQ4bnv7-43">
          <mxGeometry x="2010" y="100" width="40" height="30" as="geometry" />
        </mxCell>
        <mxCell id="tCxssxvuFEsz2nQ4bnv7-128" style="edgeStyle=orthogonalEdgeStyle;rounded=0;orthogonalLoop=1;jettySize=auto;html=1;entryX=0;entryY=0.5;entryDx=0;entryDy=0;" edge="1" parent="tCxssxvuFEsz2nQ4bnv7-43" source="tCxssxvuFEsz2nQ4bnv7-116" target="tCxssxvuFEsz2nQ4bnv7-127">
          <mxGeometry relative="1" as="geometry" />
        </mxCell>
        <mxCell id="tCxssxvuFEsz2nQ4bnv7-116" value="&quot;Al llegar la notificacion de cita aceptada se enviara horario, fecha, nombre del veterinario y ubicacion&quot;" style="shape=document;whiteSpace=wrap;html=1;boundedLbl=1;" vertex="1" parent="tCxssxvuFEsz2nQ4bnv7-43">
          <mxGeometry x="2470" y="20" width="290" height="80" as="geometry" />
        </mxCell>
        <mxCell id="tCxssxvuFEsz2nQ4bnv7-118" value="" style="endArrow=none;html=1;rounded=0;" edge="1" parent="tCxssxvuFEsz2nQ4bnv7-43">
          <mxGeometry width="50" height="50" relative="1" as="geometry">
            <mxPoint x="2050" y="420" as="sourcePoint" />
            <mxPoint x="2050" y="320" as="targetPoint" />
          </mxGeometry>
        </mxCell>
        <mxCell id="tCxssxvuFEsz2nQ4bnv7-119" value="8" style="ellipse;whiteSpace=wrap;html=1;aspect=fixed;" vertex="1" parent="tCxssxvuFEsz2nQ4bnv7-43">
          <mxGeometry x="2025" y="340" width="50" height="50" as="geometry" />
        </mxCell>
        <mxCell id="tCxssxvuFEsz2nQ4bnv7-125" value="Volver a registrar nueva cita" style="rounded=1;whiteSpace=wrap;html=1;" vertex="1" parent="tCxssxvuFEsz2nQ4bnv7-43">
          <mxGeometry x="1990" y="260" width="120" height="60" as="geometry" />
        </mxCell>
        <mxCell id="tCxssxvuFEsz2nQ4bnv7-130" style="edgeStyle=orthogonalEdgeStyle;rounded=0;orthogonalLoop=1;jettySize=auto;html=1;entryX=0;entryY=0.5;entryDx=0;entryDy=0;" edge="1" parent="tCxssxvuFEsz2nQ4bnv7-43" source="tCxssxvuFEsz2nQ4bnv7-127" target="tCxssxvuFEsz2nQ4bnv7-129">
          <mxGeometry relative="1" as="geometry" />
        </mxCell>
        <mxCell id="tCxssxvuFEsz2nQ4bnv7-127" value="&quot;Al salir de la sección servicio e ingresar a la sección citas puedes ver todas tus citas registradas y por confirmación&quot;" style="shape=document;whiteSpace=wrap;html=1;boundedLbl=1;" vertex="1" parent="tCxssxvuFEsz2nQ4bnv7-43">
          <mxGeometry x="2800" y="20" width="310" height="80" as="geometry" />
        </mxCell>
        <mxCell id="tCxssxvuFEsz2nQ4bnv7-132" style="edgeStyle=orthogonalEdgeStyle;rounded=0;orthogonalLoop=1;jettySize=auto;html=1;entryX=0;entryY=0.5;entryDx=0;entryDy=0;" edge="1" parent="tCxssxvuFEsz2nQ4bnv7-43" source="tCxssxvuFEsz2nQ4bnv7-129" target="tCxssxvuFEsz2nQ4bnv7-131">
          <mxGeometry relative="1" as="geometry" />
        </mxCell>
        <mxCell id="tCxssxvuFEsz2nQ4bnv7-129" value="Salir de Servicios" style="rounded=1;whiteSpace=wrap;html=1;" vertex="1" parent="tCxssxvuFEsz2nQ4bnv7-43">
          <mxGeometry x="3150" y="30" width="120" height="60" as="geometry" />
        </mxCell>
        <mxCell id="tCxssxvuFEsz2nQ4bnv7-131" value="&quot;Vamos a configurar tu perfil&quot;" style="shape=document;whiteSpace=wrap;html=1;boundedLbl=1;" vertex="1" parent="tCxssxvuFEsz2nQ4bnv7-43">
          <mxGeometry x="3320" y="20" width="180" height="80" as="geometry" />
        </mxCell>
        <mxCell id="tCxssxvuFEsz2nQ4bnv7-98" style="edgeStyle=orthogonalEdgeStyle;rounded=0;orthogonalLoop=1;jettySize=auto;html=1;entryX=0;entryY=0.5;entryDx=0;entryDy=0;" edge="1" parent="tCxssxvuFEsz2nQ4bnv7-41" source="tCxssxvuFEsz2nQ4bnv7-78" target="tCxssxvuFEsz2nQ4bnv7-97">
          <mxGeometry relative="1" as="geometry" />
        </mxCell>
        <mxCell id="tCxssxvuFEsz2nQ4bnv7-134" style="edgeStyle=orthogonalEdgeStyle;rounded=0;orthogonalLoop=1;jettySize=auto;html=1;entryX=0.5;entryY=0;entryDx=0;entryDy=0;" edge="1" parent="tCxssxvuFEsz2nQ4bnv7-41" source="tCxssxvuFEsz2nQ4bnv7-131" target="tCxssxvuFEsz2nQ4bnv7-133">
          <mxGeometry relative="1" as="geometry">
            <Array as="points">
              <mxPoint x="3410" y="860" />
              <mxPoint x="270" y="860" />
            </Array>
          </mxGeometry>
        </mxCell>
        <mxCell id="tCxssxvuFEsz2nQ4bnv7-44" value="&lt;font style=&quot;font-size: 28px;&quot;&gt;Configuracion&lt;/font&gt;" style="swimlane;startSize=140;horizontal=0;html=1;" vertex="1" parent="tCxssxvuFEsz2nQ4bnv7-41">
          <mxGeometry y="810" width="5280" height="1150" as="geometry" />
        </mxCell>
        <mxCell id="tCxssxvuFEsz2nQ4bnv7-137" style="edgeStyle=orthogonalEdgeStyle;rounded=0;orthogonalLoop=1;jettySize=auto;html=1;entryX=0;entryY=0.5;entryDx=0;entryDy=0;" edge="1" parent="tCxssxvuFEsz2nQ4bnv7-44" source="tCxssxvuFEsz2nQ4bnv7-133" target="tCxssxvuFEsz2nQ4bnv7-135">
          <mxGeometry relative="1" as="geometry" />
        </mxCell>
        <mxCell id="tCxssxvuFEsz2nQ4bnv7-133" value="Entrar a Perfil" style="rounded=1;whiteSpace=wrap;html=1;" vertex="1" parent="tCxssxvuFEsz2nQ4bnv7-44">
          <mxGeometry x="210" y="90" width="120" height="60" as="geometry" />
        </mxCell>
        <mxCell id="tCxssxvuFEsz2nQ4bnv7-138" style="edgeStyle=orthogonalEdgeStyle;rounded=0;orthogonalLoop=1;jettySize=auto;html=1;entryX=0;entryY=0.5;entryDx=0;entryDy=0;" edge="1" parent="tCxssxvuFEsz2nQ4bnv7-44" source="tCxssxvuFEsz2nQ4bnv7-135" target="tCxssxvuFEsz2nQ4bnv7-136">
          <mxGeometry relative="1" as="geometry" />
        </mxCell>
        <mxCell id="tCxssxvuFEsz2nQ4bnv7-135" value="Mostrar información de tu cuenta" style="rounded=1;whiteSpace=wrap;html=1;" vertex="1" parent="tCxssxvuFEsz2nQ4bnv7-44">
          <mxGeometry x="380" y="90" width="120" height="60" as="geometry" />
        </mxCell>
        <mxCell id="tCxssxvuFEsz2nQ4bnv7-141" style="edgeStyle=orthogonalEdgeStyle;rounded=0;orthogonalLoop=1;jettySize=auto;html=1;entryX=0;entryY=0.5;entryDx=0;entryDy=0;" edge="1" parent="tCxssxvuFEsz2nQ4bnv7-44" source="tCxssxvuFEsz2nQ4bnv7-136" target="tCxssxvuFEsz2nQ4bnv7-140">
          <mxGeometry relative="1" as="geometry" />
        </mxCell>
        <mxCell id="tCxssxvuFEsz2nQ4bnv7-136" value="Botones de Cerrar Sesión, Configuración y Método de pago" style="rounded=1;whiteSpace=wrap;html=1;" vertex="1" parent="tCxssxvuFEsz2nQ4bnv7-44">
          <mxGeometry x="550" y="90" width="120" height="60" as="geometry" />
        </mxCell>
        <mxCell id="tCxssxvuFEsz2nQ4bnv7-211" style="edgeStyle=orthogonalEdgeStyle;rounded=0;orthogonalLoop=1;jettySize=auto;html=1;entryX=0;entryY=0.5;entryDx=0;entryDy=0;" edge="1" parent="tCxssxvuFEsz2nQ4bnv7-44" source="tCxssxvuFEsz2nQ4bnv7-140" target="tCxssxvuFEsz2nQ4bnv7-210">
          <mxGeometry relative="1" as="geometry" />
        </mxCell>
        <mxCell id="tCxssxvuFEsz2nQ4bnv7-212" style="edgeStyle=orthogonalEdgeStyle;rounded=0;orthogonalLoop=1;jettySize=auto;html=1;entryX=0.5;entryY=0;entryDx=0;entryDy=0;" edge="1" parent="tCxssxvuFEsz2nQ4bnv7-44" source="tCxssxvuFEsz2nQ4bnv7-140" target="tCxssxvuFEsz2nQ4bnv7-142">
          <mxGeometry relative="1" as="geometry" />
        </mxCell>
        <mxCell id="tCxssxvuFEsz2nQ4bnv7-140" value="Deseas modificar tu perfil?" style="rhombus;whiteSpace=wrap;html=1;" vertex="1" parent="tCxssxvuFEsz2nQ4bnv7-44">
          <mxGeometry x="720" y="80" width="80" height="80" as="geometry" />
        </mxCell>
        <mxCell id="tCxssxvuFEsz2nQ4bnv7-220" style="edgeStyle=orthogonalEdgeStyle;rounded=0;orthogonalLoop=1;jettySize=auto;html=1;entryX=0.5;entryY=0;entryDx=0;entryDy=0;" edge="1" parent="tCxssxvuFEsz2nQ4bnv7-44" source="tCxssxvuFEsz2nQ4bnv7-142" target="tCxssxvuFEsz2nQ4bnv7-217">
          <mxGeometry relative="1" as="geometry" />
        </mxCell>
        <mxCell id="tCxssxvuFEsz2nQ4bnv7-142" value="Entrar a método de pago" style="rounded=1;whiteSpace=wrap;html=1;" vertex="1" parent="tCxssxvuFEsz2nQ4bnv7-44">
          <mxGeometry x="700" y="210" width="120" height="60" as="geometry" />
        </mxCell>
        <mxCell id="tCxssxvuFEsz2nQ4bnv7-224" style="edgeStyle=orthogonalEdgeStyle;rounded=0;orthogonalLoop=1;jettySize=auto;html=1;entryX=0;entryY=0.5;entryDx=0;entryDy=0;" edge="1" parent="tCxssxvuFEsz2nQ4bnv7-44" source="tCxssxvuFEsz2nQ4bnv7-210" target="tCxssxvuFEsz2nQ4bnv7-223">
          <mxGeometry relative="1" as="geometry" />
        </mxCell>
        <mxCell id="tCxssxvuFEsz2nQ4bnv7-210" value="Entrar a configuracion" style="rounded=1;whiteSpace=wrap;html=1;" vertex="1" parent="tCxssxvuFEsz2nQ4bnv7-44">
          <mxGeometry x="860" y="90" width="120" height="60" as="geometry" />
        </mxCell>
        <mxCell id="tCxssxvuFEsz2nQ4bnv7-215" value="" style="endArrow=none;html=1;rounded=0;" edge="1" parent="tCxssxvuFEsz2nQ4bnv7-44">
          <mxGeometry width="50" height="50" relative="1" as="geometry">
            <mxPoint x="270" y="60" as="sourcePoint" />
            <mxPoint x="160" y="60" as="targetPoint" />
          </mxGeometry>
        </mxCell>
        <mxCell id="tCxssxvuFEsz2nQ4bnv7-216" value="7" style="ellipse;whiteSpace=wrap;html=1;aspect=fixed;" vertex="1" parent="tCxssxvuFEsz2nQ4bnv7-44">
          <mxGeometry x="200" y="40" width="40" height="40" as="geometry" />
        </mxCell>
        <mxCell id="tCxssxvuFEsz2nQ4bnv7-219" style="edgeStyle=orthogonalEdgeStyle;rounded=0;orthogonalLoop=1;jettySize=auto;html=1;entryX=0.5;entryY=0;entryDx=0;entryDy=0;" edge="1" parent="tCxssxvuFEsz2nQ4bnv7-44" source="tCxssxvuFEsz2nQ4bnv7-217" target="tCxssxvuFEsz2nQ4bnv7-218">
          <mxGeometry relative="1" as="geometry" />
        </mxCell>
        <mxCell id="tCxssxvuFEsz2nQ4bnv7-217" value="Ver métodos de pago registrado" style="rounded=1;whiteSpace=wrap;html=1;" vertex="1" parent="tCxssxvuFEsz2nQ4bnv7-44">
          <mxGeometry x="700" y="310" width="120" height="60" as="geometry" />
        </mxCell>
        <mxCell id="tCxssxvuFEsz2nQ4bnv7-241" style="edgeStyle=orthogonalEdgeStyle;rounded=0;orthogonalLoop=1;jettySize=auto;html=1;entryX=0;entryY=0.5;entryDx=0;entryDy=0;" edge="1" parent="tCxssxvuFEsz2nQ4bnv7-44" source="tCxssxvuFEsz2nQ4bnv7-218" target="tCxssxvuFEsz2nQ4bnv7-235">
          <mxGeometry relative="1" as="geometry" />
        </mxCell>
        <mxCell id="tCxssxvuFEsz2nQ4bnv7-218" value="Deseas agregar un nuevo método de pago?" style="rhombus;whiteSpace=wrap;html=1;" vertex="1" parent="tCxssxvuFEsz2nQ4bnv7-44">
          <mxGeometry x="695" y="410" width="130" height="140" as="geometry" />
        </mxCell>
        <mxCell id="tCxssxvuFEsz2nQ4bnv7-227" style="edgeStyle=orthogonalEdgeStyle;rounded=0;orthogonalLoop=1;jettySize=auto;html=1;entryX=0;entryY=0.5;entryDx=0;entryDy=0;" edge="1" parent="tCxssxvuFEsz2nQ4bnv7-44" source="tCxssxvuFEsz2nQ4bnv7-223" target="tCxssxvuFEsz2nQ4bnv7-225">
          <mxGeometry relative="1" as="geometry" />
        </mxCell>
        <mxCell id="tCxssxvuFEsz2nQ4bnv7-223" value="Actualizar los datos deseados de tu perfil&amp;nbsp;" style="rounded=1;whiteSpace=wrap;html=1;" vertex="1" parent="tCxssxvuFEsz2nQ4bnv7-44">
          <mxGeometry x="1020" y="90" width="120" height="60" as="geometry" />
        </mxCell>
        <mxCell id="tCxssxvuFEsz2nQ4bnv7-228" style="edgeStyle=orthogonalEdgeStyle;rounded=0;orthogonalLoop=1;jettySize=auto;html=1;entryX=0;entryY=0.5;entryDx=0;entryDy=0;" edge="1" parent="tCxssxvuFEsz2nQ4bnv7-44" source="tCxssxvuFEsz2nQ4bnv7-225" target="tCxssxvuFEsz2nQ4bnv7-226">
          <mxGeometry relative="1" as="geometry" />
        </mxCell>
        <mxCell id="tCxssxvuFEsz2nQ4bnv7-225" value="Guardar&amp;nbsp;" style="rounded=1;whiteSpace=wrap;html=1;" vertex="1" parent="tCxssxvuFEsz2nQ4bnv7-44">
          <mxGeometry x="1180" y="90" width="120" height="60" as="geometry" />
        </mxCell>
        <mxCell id="tCxssxvuFEsz2nQ4bnv7-230" style="edgeStyle=orthogonalEdgeStyle;rounded=0;orthogonalLoop=1;jettySize=auto;html=1;entryX=0;entryY=0.5;entryDx=0;entryDy=0;" edge="1" parent="tCxssxvuFEsz2nQ4bnv7-44" source="tCxssxvuFEsz2nQ4bnv7-226" target="tCxssxvuFEsz2nQ4bnv7-229">
          <mxGeometry relative="1" as="geometry" />
        </mxCell>
        <mxCell id="tCxssxvuFEsz2nQ4bnv7-226" value="Datos actualizados correctamente" style="rounded=1;whiteSpace=wrap;html=1;" vertex="1" parent="tCxssxvuFEsz2nQ4bnv7-44">
          <mxGeometry x="1360" y="90" width="120" height="60" as="geometry" />
        </mxCell>
        <mxCell id="tCxssxvuFEsz2nQ4bnv7-250" style="edgeStyle=orthogonalEdgeStyle;rounded=0;orthogonalLoop=1;jettySize=auto;html=1;entryX=0;entryY=0.5;entryDx=0;entryDy=0;" edge="1" parent="tCxssxvuFEsz2nQ4bnv7-44" source="tCxssxvuFEsz2nQ4bnv7-229" target="tCxssxvuFEsz2nQ4bnv7-249">
          <mxGeometry relative="1" as="geometry" />
        </mxCell>
        <mxCell id="tCxssxvuFEsz2nQ4bnv7-229" value="&quot;Solo se puedes actualizar unos datos especiicos&quot;" style="shape=document;whiteSpace=wrap;html=1;boundedLbl=1;" vertex="1" parent="tCxssxvuFEsz2nQ4bnv7-44">
          <mxGeometry x="1540" y="80" width="120" height="80" as="geometry" />
        </mxCell>
        <mxCell id="tCxssxvuFEsz2nQ4bnv7-234" style="edgeStyle=orthogonalEdgeStyle;rounded=0;orthogonalLoop=1;jettySize=auto;html=1;entryX=0;entryY=0.5;entryDx=0;entryDy=0;" edge="1" parent="tCxssxvuFEsz2nQ4bnv7-44" source="tCxssxvuFEsz2nQ4bnv7-231" target="tCxssxvuFEsz2nQ4bnv7-232">
          <mxGeometry relative="1" as="geometry" />
        </mxCell>
        <mxCell id="tCxssxvuFEsz2nQ4bnv7-231" value="Uso de la Pagina Terminado" style="rounded=1;whiteSpace=wrap;html=1;" vertex="1" parent="tCxssxvuFEsz2nQ4bnv7-44">
          <mxGeometry x="1930" y="90" width="120" height="60" as="geometry" />
        </mxCell>
        <mxCell id="tCxssxvuFEsz2nQ4bnv7-232" value="Cerrar Sesion" style="rounded=1;whiteSpace=wrap;html=1;" vertex="1" parent="tCxssxvuFEsz2nQ4bnv7-44">
          <mxGeometry x="2210" y="90" width="120" height="60" as="geometry" />
        </mxCell>
        <mxCell id="tCxssxvuFEsz2nQ4bnv7-245" style="edgeStyle=orthogonalEdgeStyle;rounded=0;orthogonalLoop=1;jettySize=auto;html=1;entryX=0;entryY=0.5;entryDx=0;entryDy=0;" edge="1" parent="tCxssxvuFEsz2nQ4bnv7-44" source="tCxssxvuFEsz2nQ4bnv7-235" target="tCxssxvuFEsz2nQ4bnv7-243">
          <mxGeometry relative="1" as="geometry" />
        </mxCell>
        <mxCell id="tCxssxvuFEsz2nQ4bnv7-235" value="Agregar método de pago" style="rounded=1;whiteSpace=wrap;html=1;" vertex="1" parent="tCxssxvuFEsz2nQ4bnv7-44">
          <mxGeometry x="910" y="450" width="120" height="60" as="geometry" />
        </mxCell>
        <mxCell id="tCxssxvuFEsz2nQ4bnv7-237" value="Uso de la Pagina Terminado" style="rounded=1;whiteSpace=wrap;html=1;" vertex="1" parent="tCxssxvuFEsz2nQ4bnv7-44">
          <mxGeometry x="710" y="620" width="120" height="60" as="geometry" />
        </mxCell>
        <mxCell id="tCxssxvuFEsz2nQ4bnv7-239" style="edgeStyle=orthogonalEdgeStyle;rounded=0;orthogonalLoop=1;jettySize=auto;html=1;entryX=0.423;entryY=-0.017;entryDx=0;entryDy=0;entryPerimeter=0;" edge="1" parent="tCxssxvuFEsz2nQ4bnv7-44" source="tCxssxvuFEsz2nQ4bnv7-218" target="tCxssxvuFEsz2nQ4bnv7-237">
          <mxGeometry relative="1" as="geometry" />
        </mxCell>
        <mxCell id="tCxssxvuFEsz2nQ4bnv7-246" style="edgeStyle=orthogonalEdgeStyle;rounded=0;orthogonalLoop=1;jettySize=auto;html=1;entryX=0;entryY=0.5;entryDx=0;entryDy=0;" edge="1" parent="tCxssxvuFEsz2nQ4bnv7-44" source="tCxssxvuFEsz2nQ4bnv7-243" target="tCxssxvuFEsz2nQ4bnv7-244">
          <mxGeometry relative="1" as="geometry" />
        </mxCell>
        <mxCell id="tCxssxvuFEsz2nQ4bnv7-243" value="Registrar datos solicitados" style="rounded=1;whiteSpace=wrap;html=1;" vertex="1" parent="tCxssxvuFEsz2nQ4bnv7-44">
          <mxGeometry x="1080" y="450" width="120" height="60" as="geometry" />
        </mxCell>
        <mxCell id="tCxssxvuFEsz2nQ4bnv7-252" style="edgeStyle=orthogonalEdgeStyle;rounded=0;orthogonalLoop=1;jettySize=auto;html=1;entryX=0;entryY=0.5;entryDx=0;entryDy=0;" edge="1" parent="tCxssxvuFEsz2nQ4bnv7-44" source="tCxssxvuFEsz2nQ4bnv7-244" target="tCxssxvuFEsz2nQ4bnv7-248">
          <mxGeometry relative="1" as="geometry" />
        </mxCell>
        <mxCell id="tCxssxvuFEsz2nQ4bnv7-244" value="Guardar método de pago" style="rounded=1;whiteSpace=wrap;html=1;" vertex="1" parent="tCxssxvuFEsz2nQ4bnv7-44">
          <mxGeometry x="1260" y="450" width="120" height="60" as="geometry" />
        </mxCell>
        <mxCell id="tCxssxvuFEsz2nQ4bnv7-247" value="Uso de la Pagina Terminado" style="rounded=1;whiteSpace=wrap;html=1;" vertex="1" parent="tCxssxvuFEsz2nQ4bnv7-44">
          <mxGeometry x="1600" y="450" width="120" height="60" as="geometry" />
        </mxCell>
        <mxCell id="tCxssxvuFEsz2nQ4bnv7-253" style="edgeStyle=orthogonalEdgeStyle;rounded=0;orthogonalLoop=1;jettySize=auto;html=1;entryX=0;entryY=0.5;entryDx=0;entryDy=0;" edge="1" parent="tCxssxvuFEsz2nQ4bnv7-44" source="tCxssxvuFEsz2nQ4bnv7-248" target="tCxssxvuFEsz2nQ4bnv7-247">
          <mxGeometry relative="1" as="geometry" />
        </mxCell>
        <mxCell id="tCxssxvuFEsz2nQ4bnv7-248" value="Mostrar métodos de pago incluyendo recién registrados" style="rounded=1;whiteSpace=wrap;html=1;" vertex="1" parent="tCxssxvuFEsz2nQ4bnv7-44">
          <mxGeometry x="1430" y="450" width="120" height="60" as="geometry" />
        </mxCell>
        <mxCell id="tCxssxvuFEsz2nQ4bnv7-251" style="edgeStyle=orthogonalEdgeStyle;rounded=0;orthogonalLoop=1;jettySize=auto;html=1;" edge="1" parent="tCxssxvuFEsz2nQ4bnv7-44" source="tCxssxvuFEsz2nQ4bnv7-249" target="tCxssxvuFEsz2nQ4bnv7-231">
          <mxGeometry relative="1" as="geometry" />
        </mxCell>
        <mxCell id="tCxssxvuFEsz2nQ4bnv7-249" value="&quot;Los administradores y veterinarios también pueden configurar su perfil&quot;" style="shape=document;whiteSpace=wrap;html=1;boundedLbl=1;" vertex="1" parent="tCxssxvuFEsz2nQ4bnv7-44">
          <mxGeometry x="1705" y="80" width="195" height="80" as="geometry" />
        </mxCell>
        <mxCell id="tCxssxvuFEsz2nQ4bnv7-254" value="" style="endArrow=none;html=1;rounded=0;" edge="1" parent="tCxssxvuFEsz2nQ4bnv7-44">
          <mxGeometry width="50" height="50" relative="1" as="geometry">
            <mxPoint x="1720" y="480" as="sourcePoint" />
            <mxPoint x="1890" y="480" as="targetPoint" />
          </mxGeometry>
        </mxCell>
        <mxCell id="tCxssxvuFEsz2nQ4bnv7-255" value="" style="endArrow=none;html=1;rounded=0;" edge="1" parent="tCxssxvuFEsz2nQ4bnv7-44">
          <mxGeometry width="50" height="50" relative="1" as="geometry">
            <mxPoint x="760" y="790" as="sourcePoint" />
            <mxPoint x="760" y="680" as="targetPoint" />
          </mxGeometry>
        </mxCell>
        <mxCell id="tCxssxvuFEsz2nQ4bnv7-256" value="9" style="ellipse;whiteSpace=wrap;html=1;aspect=fixed;" vertex="1" parent="tCxssxvuFEsz2nQ4bnv7-44">
          <mxGeometry x="730" y="700" width="60" height="60" as="geometry" />
        </mxCell>
        <mxCell id="tCxssxvuFEsz2nQ4bnv7-257" value="10" style="ellipse;whiteSpace=wrap;html=1;aspect=fixed;" vertex="1" parent="tCxssxvuFEsz2nQ4bnv7-44">
          <mxGeometry x="1750" y="450" width="60" height="60" as="geometry" />
        </mxCell>
        <mxCell id="tCxssxvuFEsz2nQ4bnv7-258" value="" style="endArrow=none;html=1;rounded=0;" edge="1" parent="tCxssxvuFEsz2nQ4bnv7-44">
          <mxGeometry width="50" height="50" relative="1" as="geometry">
            <mxPoint x="2090" y="260" as="sourcePoint" />
            <mxPoint x="2090" y="120" as="targetPoint" />
          </mxGeometry>
        </mxCell>
        <mxCell id="tCxssxvuFEsz2nQ4bnv7-259" value="" style="endArrow=none;html=1;rounded=0;" edge="1" parent="tCxssxvuFEsz2nQ4bnv7-44">
          <mxGeometry width="50" height="50" relative="1" as="geometry">
            <mxPoint x="2160" y="260" as="sourcePoint" />
            <mxPoint x="2160" y="120" as="targetPoint" />
          </mxGeometry>
        </mxCell>
        <mxCell id="tCxssxvuFEsz2nQ4bnv7-260" value="10" style="ellipse;whiteSpace=wrap;html=1;aspect=fixed;" vertex="1" parent="tCxssxvuFEsz2nQ4bnv7-44">
          <mxGeometry x="2130" y="160" width="60" height="60" as="geometry" />
        </mxCell>
        <mxCell id="tCxssxvuFEsz2nQ4bnv7-261" value="9" style="ellipse;whiteSpace=wrap;html=1;aspect=fixed;" vertex="1" parent="tCxssxvuFEsz2nQ4bnv7-44">
          <mxGeometry x="2060" y="160" width="60" height="60" as="geometry" />
        </mxCell>
        <mxCell id="tCxssxvuFEsz2nQ4bnv7-58" style="edgeStyle=orthogonalEdgeStyle;rounded=0;orthogonalLoop=1;jettySize=auto;html=1;entryX=0.5;entryY=0;entryDx=0;entryDy=0;" edge="1" parent="1" source="tCxssxvuFEsz2nQ4bnv7-30" target="tCxssxvuFEsz2nQ4bnv7-57">
          <mxGeometry relative="1" as="geometry" />
        </mxCell>
        <mxCell id="tCxssxvuFEsz2nQ4bnv7-113" value="Si" style="text;html=1;align=center;verticalAlign=middle;resizable=0;points=[];autosize=1;strokeColor=none;fillColor=none;" vertex="1" parent="1">
          <mxGeometry x="-3105" y="-1722" width="30" height="30" as="geometry" />
        </mxCell>
        <mxCell id="tCxssxvuFEsz2nQ4bnv7-221" value="No" style="text;html=1;align=center;verticalAlign=middle;resizable=0;points=[];autosize=1;strokeColor=none;fillColor=none;" vertex="1" parent="1">
          <mxGeometry x="-4480" y="-1162" width="40" height="30" as="geometry" />
        </mxCell>
        <mxCell id="tCxssxvuFEsz2nQ4bnv7-222" value="Si" style="text;html=1;align=center;verticalAlign=middle;resizable=0;points=[];autosize=1;strokeColor=none;fillColor=none;" vertex="1" parent="1">
          <mxGeometry x="-4385" y="-1232" width="30" height="30" as="geometry" />
        </mxCell>
        <mxCell id="tCxssxvuFEsz2nQ4bnv7-240" value="No" style="text;html=1;align=center;verticalAlign=middle;resizable=0;points=[];autosize=1;strokeColor=none;fillColor=none;" vertex="1" parent="1">
          <mxGeometry x="-4480" y="-762" width="40" height="30" as="geometry" />
        </mxCell>
        <mxCell id="tCxssxvuFEsz2nQ4bnv7-242" value="Si" style="text;html=1;align=center;verticalAlign=middle;resizable=0;points=[];autosize=1;strokeColor=none;fillColor=none;" vertex="1" parent="1">
          <mxGeometry x="-4345" y="-892" width="30" height="30" as="geometry" />
        </mxCell>
      </root>
    </mxGraphModel>
  </diagram>
</mxfile>
